<?xml version="1.0" encoding="utf-8"?>
<!-- Generator: Adobe Illustrator 23.0.3, SVG Export Plug-In . SVG Version: 6.00 Build 0)  -->
<svg version="1.1" xmlns="http://www.w3.org/2000/svg" xmlns:xlink="http://www.w3.org/1999/xlink" x="0px" y="0px"
	 viewBox="0 0 1280 800" style="enable-background:new 0 0 1280 800;" xml:space="preserve">
<style type="text/css">
	.st0{display:none;}
	.st1{fill:#9B4B35;}
	.st2{fill:#FAFCD2;}
	.st3{fill:#8C8C8C;}
	.st4{fill:none;stroke:#83572B;stroke-width:43;stroke-miterlimit:10;}
	.st5{fill:#333333;}
	.st6{opacity:0.1;fill:url(#SVGID_1_);}
	.st7{fill:#0ABAB5;}
	.st8{fill:#0B847E;}
	.st9{fill:#B5B5B5;}
	.st10{fill:#AF7439;}
	.st11{fill:#83572B;}
	.st12{fill:none;stroke:#000000;stroke-width:5;stroke-miterlimit:10;}
	.st13{fill:#80F9F3;}
	.st14{fill:#FFFFFF;stroke:#0B847E;stroke-width:2;stroke-miterlimit:10;}
	.st15{fill:#FFFFFF;stroke:#231F20;stroke-width:2;stroke-miterlimit:10;}
	.st16{fill:#FCF1A4;}
	.st17{fill:#C69B67;}
	.st18{fill:#592C0E;stroke:#A0A0A0;stroke-width:2;stroke-miterlimit:10;}
	.st19{fill:#A0A0A0;}
	.st20{fill:#070606;stroke:#A0A0A0;stroke-width:2;stroke-miterlimit:10;}
	.st21{fill:#93862C;stroke:#A0A0A0;stroke-width:0.75;stroke-miterlimit:10;}
	.st22{fill:none;stroke:#A3A3A3;stroke-width:2;stroke-miterlimit:10;}
	.st23{fill:#EFF9F5;}
	.st24{fill:#9D9E9E;}
	.st25{fill:#939393;}
	.st26{fill:#E0A053;}
	.st27{fill:#FFFFFF;}
	.st28{font-family:'CabinSketch-Regular';}
	.st29{font-size:21px;}
	.st30{fill:none;stroke:#B5B5B5;stroke-width:11;stroke-miterlimit:10;}
	.st31{fill:#FEFFD2;}
	.st32{fill:#6F4E37;}
</style>
<g id="Layer_1" class="st0">
</g>
<g id="lights">
	<rect y="0.43" class="st1" width="1280" height="582.95"/>
	<rect x="0" y="581.74" class="st2" width="1278.77" height="217.05"/>
	<path class="st3" d="M1111.31,585.18H847.63c-1.44,0-2.38-1.45-1.75-2.69l2.26-2.14c0.33-0.64,2.33-2.05,3.08-2.05l258.08,0.82
		c0.72,0,1.89,0.54,2.23,1.15l1.5,2.16C1113.71,583.68,1112.77,585.18,1111.31,585.18z"/>
	<path class="st4" d="M1091.52,686.42c0,0-72.26,12.76-85.54,106.07V800"/>
	<path class="st4" d="M895.53,680.85c0,0,72.19,13.39,85.46,111.27V800"/>
	<rect x="251.42" y="39.96" width="780.05" height="499.69"/>
	<rect x="269.89" y="57.81" class="st5" width="743.8" height="470.77"/>
	<radialGradient id="SVGID_1_" cx="657.5385" cy="291.9043" r="300.1157" gradientUnits="userSpaceOnUse">
		<stop  offset="0" style="stop-color:#FFFFFF"/>
		<stop  offset="0.0657" style="stop-color:#E7E7E7"/>
		<stop  offset="0.2662" style="stop-color:#A2A2A2"/>
		<stop  offset="0.456" style="stop-color:#686868"/>
		<stop  offset="0.6295" style="stop-color:#3B3B3B"/>
		<stop  offset="0.7835" style="stop-color:#1B1B1B"/>
		<stop  offset="0.9122" style="stop-color:#070707"/>
		<stop  offset="1" style="stop-color:#000000"/>
	</radialGradient>
	<rect x="297.4" y="67.31" class="st6" width="720.27" height="449.19"/>
	<path class="st7" d="M849.97,340.5h262.34c0,0-0.65,31.8-6.12,74.21c-6.95,53.89-21.69,124.92-52.79,169.61H909.79
		C909.79,584.32,853.42,507.2,849.97,340.5z"/>
	<path class="st7" d="M1180.66,448.16c-4.02-17.41-16.82-43.43-70.34-31.19c-4.45,1.02-8.7,5.53-9.43,10.04l-3.28,20.27
		c-0.04,0.28,0.28,0.46,0.48,0.27c4.16-3.92,39.2-21.15,53.21-2.34c0.01,0.01,0.01,0.01,0.02,0.02
		c0.31,0.34,23.43,30.86-13.97,60.42c-15.11,11.94-32.42,15-51.62,16.55l0,0c-3.68,0.3-6.88,2.63-8.3,6.04l-6.92,16.7
		c-0.08,0.19,0.04,0.4,0.24,0.41c5.92,0.24,77.62,3.42,101.74-40.92c3.91-7.19,6.2-14.03,8.52-22.66c0.16-0.61,0.55-4.48,0.56-5.11
		l0.54-15.61C1182.09,459.31,1181.42,451.47,1180.66,448.16z"/>
	<polygon class="st8" points="898.48,566.51 908.59,584.32 1053.53,584.32 1063.5,566.51 	"/>
	<path class="st9" d="M845.68,582.95v6.48c0,0,38.6,45.34,83.21,44.53h101.16c44.61,0.81,83.21-44.53,83.21-44.53v-6.48H845.68z"/>
	<rect x="559.65" y="631.31" class="st10" width="720.35" height="38.72"/>
	<rect x="559.65" y="631.31" class="st11" width="97.88" height="38.29"/>
	<rect x="743.99" y="669.61" class="st10" width="480.59" height="37.63"/>
	<rect x="743.99" y="669.61" class="st11" width="480.59" height="15.28"/>
	<rect x="654.3" y="664.16" class="st11" width="626.26" height="5.5"/>
	<rect x="743.99" y="682.42" class="st11" width="108.87" height="24.82"/>
	<path class="st12" d="M0,0c0,0,251.42,177.5,650.19,0c0,0,319.64,212.57,629.81,0"/>
	<rect x="29.84" y="21.95" transform="matrix(0.8687 0.4953 -0.4953 0.8687 17.8379 -13.932)" width="10.71" height="9.46"/>
	<path class="st8" d="M860.29,341.48c0,0,3.24,180.12,69.39,227.57l22-2.61c0,0-44.61-42.37-44.61-221.47L860.29,341.48z"/>
	<path class="st13" d="M1098.6,340.5c0,0,14.65,113-54.82,226.01h-6.72c0,0,51.28-166.51,36.9-226.01H1098.6z"/>
	<path class="st14" d="M1112.31,340.5c-139.11-14.53-262.34,0-262.34,0"/>
	<rect x="98.04" y="47.7" transform="matrix(0.9385 0.3451 -0.3451 0.9385 24.4479 -32.4657)" width="10.71" height="9.46"/>
	<rect x="189.86" y="70.5" transform="matrix(0.9974 0.0717 -0.0717 0.9974 5.8944 -13.8004)" width="10.71" height="9.46"/>
	<rect x="334.05" y="79.05" transform="matrix(1 5.947300e-03 -5.947300e-03 1 0.5042 -2.0171)" width="10.71" height="9.46"/>
	<rect x="1253.42" y="14.82" transform="matrix(0.8921 -0.4519 0.4519 0.8921 127.0277 570.9499)" width="10.71" height="9.46"/>
	<rect x="1180.99" y="52.03" transform="matrix(0.9 -0.4359 0.4359 0.9 93.8763 522.7449)" width="10.71" height="9.46"/>
	<rect x="1092.89" y="80.83" transform="matrix(1 5.947300e-03 -5.947300e-03 1 0.5283 -6.5301)" width="10.71" height="9.46"/>
	<rect x="478.71" y="55.53" transform="matrix(0.9345 -0.3559 0.3559 0.9345 10.2471 176.215)" width="10.71" height="9.46"/>
	<rect x="720.52" y="40.69" transform="matrix(0.9568 0.2908 -0.2908 0.9568 44.5876 -209.1492)" width="10.71" height="9.46"/>
	<rect x="867.2" y="83.4" transform="matrix(1 5.947300e-03 -5.947300e-03 1 0.5396 -5.1878)" width="10.71" height="9.46"/>
	<rect x="980.77" y="94.71" transform="matrix(1 5.947300e-03 -5.947300e-03 1 0.6088 -5.863)" width="10.71" height="9.46"/>
	<g id="bulb">
		<path class="st15" d="M26.74,28.53c-4.52,2.37-14.56,9.79-10.94,27.99c0.53,2.65,3.48,4.02,5.84,2.69
			c6.54-3.7,17.69-11.86,16.73-24.12c-0.1-1.31-0.84-2.48-1.97-3.13l-5.84-3.36C29.38,27.93,27.94,27.9,26.74,28.53z"/>
		<path class="st15" d="M95.36,55.65c-4.07,3.08-12.74,12.06-6.17,29.41c0.96,2.53,4.1,3.39,6.2,1.69
			c5.84-4.73,15.49-14.62,12.52-26.55c-0.32-1.27-1.24-2.31-2.46-2.76l-6.31-2.35C97.86,54.62,96.44,54.83,95.36,55.65z"/>
		<path class="st15" d="M188.39,80.55c-3.06,4.09-8.9,15.12,2.22,29.97c1.62,2.17,4.88,2.12,6.42-0.1
			c4.3-6.16,10.83-18.33,4.68-28.98c-0.66-1.13-1.83-1.87-3.13-1.97l-6.72-0.51C190.51,78.86,189.2,79.46,188.39,80.55z"/>
		<path class="st15" d="M332.94,89.54c-2.78,4.28-7.89,15.67,4.19,29.76c1.76,2.05,5,1.8,6.4-0.52c3.89-6.43,9.6-19.01,2.76-29.22
			c-0.73-1.09-1.95-1.75-3.25-1.76l-6.74-0.06C334.94,87.72,333.68,88.4,332.94,89.54z"/>
		<path class="st15" d="M1255.67,27.63c-0.52,5.08,0.15,17.54,17.33,24.55c2.5,1.02,5.27-0.69,5.46-3.39
			c0.52-7.5-0.15-21.3-10.91-27.25c-1.15-0.63-2.53-0.67-3.7-0.08l-6.02,3.02C1256.61,25.09,1255.8,26.28,1255.67,27.63z"/>
		<path class="st15" d="M1183.08,64.78c-0.61,5.07-0.16,17.54,16.89,24.86c2.49,1.07,5.28-0.59,5.52-3.29
			c0.65-7.49,0.23-21.29-10.42-27.44c-1.13-0.65-2.52-0.71-3.7-0.14l-6.07,2.91C1184.08,62.26,1183.24,63.43,1183.08,64.78z"/>
		<path class="st15" d="M1091.78,91.32c-2.78,4.28-7.89,15.67,4.19,29.76c1.76,2.05,5,1.8,6.4-0.52c3.89-6.43,9.6-19.01,2.76-29.22
			c-0.73-1.09-1.95-1.75-3.25-1.76l-6.74-0.06C1093.78,89.5,1092.52,90.18,1091.78,91.32z"/>
		<path class="st15" d="M480.12,67.97c-1.05,5-1.69,17.46,14.66,26.23c2.38,1.28,5.32-0.13,5.78-2.8c1.3-7.4,2.08-21.19-7.99-28.25
			c-1.07-0.75-2.45-0.93-3.67-0.47l-6.3,2.37C481.33,65.54,480.39,66.64,480.12,67.97z"/>
		<path class="st15" d="M718.04,49.1c-3.89,3.31-12.03,12.77-4.47,29.72c1.1,2.47,4.28,3.15,6.29,1.33
			c5.56-5.06,14.62-15.48,10.98-27.22c-0.39-1.25-1.37-2.23-2.62-2.62l-6.44-1.98C720.47,47.92,719.07,48.22,718.04,49.1z"/>
		<path class="st15" d="M866.09,93.89c-2.78,4.28-7.89,15.67,4.19,29.76c1.76,2.05,5,1.8,6.4-0.52c3.89-6.43,9.6-19.01,2.76-29.22
			c-0.73-1.09-1.95-1.75-3.25-1.76l-6.74-0.06C868.1,92.07,866.83,92.76,866.09,93.89z"/>
		<path class="st15" d="M979.66,105.2c-2.78,4.28-7.89,15.67,4.19,29.76c1.76,2.05,5,1.8,6.4-0.52c3.89-6.43,9.6-19.01,2.76-29.22
			c-0.73-1.09-1.95-1.75-3.25-1.76l-6.74-0.06C981.66,103.38,980.4,104.06,979.66,105.2z"/>
		<path class="st15" d="M593.71,37.72c-0.98,5.01-1.46,17.48,15.01,26.04c2.4,1.25,5.31-0.2,5.75-2.87
			c1.2-7.42,1.8-21.22-8.36-28.14c-1.08-0.74-2.46-0.89-3.68-0.42l-6.27,2.46C594.89,35.29,593.97,36.39,593.71,37.72z"/>
	</g>
	<rect x="592.2" y="25.23" transform="matrix(0.9297 -0.3682 0.3682 0.9297 30.9527 222.1388)" width="10.71" height="9.46"/>
	<rect y="269.5" class="st16" width="127.12" height="11.7"/>
	<rect y="281.2" class="st17" width="127.12" height="5.85"/>
	<rect y="354.47" class="st16" width="127.12" height="11.7"/>
	<rect y="366.17" class="st17" width="127.12" height="5.85"/>
	<path class="st18" d="M32.65,268.88H9.58c-2.38,0-4.31-1.93-4.31-4.31V201.5c0-2.38,1.93-4.31,4.31-4.31h23.08
		c2.38,0,4.31,1.93,4.31,4.31v63.08C36.96,266.95,35.03,268.88,32.65,268.88z"/>
	<path class="st19" d="M35.42,197.19H6.81c-0.85,0-1.54-0.69-1.54-1.54v-1.62c0-0.85,0.69-1.54,1.54-1.54h28.62
		c0.85,0,1.54,0.69,1.54,1.54v1.62C36.96,196.5,36.27,197.19,35.42,197.19z"/>
	<path class="st20" d="M70.19,268.65H51.11c-2.38,0-4.31-1.93-4.31-4.31v-25.03c0-2.38,1.93-4.31,4.31-4.31h19.08
		c2.38,0,4.31,1.93,4.31,4.31v25.03C74.5,266.72,72.57,268.65,70.19,268.65z"/>
	<path class="st19" d="M75.32,235.01H46.34c-0.61,0-1.1-0.49-1.1-1.1l0,0c0-0.61,0.49-1.1,1.1-1.1h28.98c0.61,0,1.1,0.49,1.1,1.1
		l0,0C76.42,234.51,75.93,235.01,75.32,235.01z"/>
	<path class="st21" d="M100.84,269.5H90.61c-2.38,0-4.31-1.93-4.31-4.31v-14.27c0-2.38,1.93-4.31,4.31-4.31h10.22
		c2.38,0,4.31,1.93,4.31,4.31v14.27C105.15,267.57,103.22,269.5,100.84,269.5z"/>
	<path class="st19" d="M105.71,246.61H85.99c-0.41,0-0.75-0.34-0.75-0.75l0,0c0-0.41,0.34-0.75,0.75-0.75h19.71
		c0.41,0,0.75,0.34,0.75,0.75l0,0C106.45,246.28,106.12,246.61,105.71,246.61z"/>
	<path class="st21" d="M100.72,244.17H90.49c-2.38,0-4.31-1.93-4.31-4.31v-14.27c0-2.38,1.93-4.31,4.31-4.31h10.22
		c2.38,0,4.31,1.93,4.31,4.31v14.27C105.02,242.25,103.1,244.17,100.72,244.17z"/>
	<path class="st19" d="M105.58,221.29H85.87c-0.41,0-0.75-0.34-0.75-0.75l0,0c0-0.41,0.34-0.75,0.75-0.75h19.71
		c0.41,0,0.75,0.34,0.75,0.75l0,0C106.33,220.95,106,221.29,105.58,221.29z"/>
	<path class="st22" d="M57.21,232.98c0-1.9,1.54-3.45,3.45-3.45s3.45,1.54,3.45,3.45"/>
	<path class="st22" d="M17.72,192.5c0-1.9,1.54-3.45,3.45-3.45c1.9,0,3.45,1.54,3.45,3.45"/>
	<path class="st23" d="M12.32,324.2h32.57c0,0-0.08,3.95-0.76,9.21c-0.86,6.69-2.69,15.51-6.55,21.06H19.75
		C19.75,354.47,12.75,344.89,12.32,324.2z"/>
	<path class="st23" d="M53.38,337.56c-0.5-2.16-2.09-5.39-8.73-3.87c-0.55,0.13-1.08,0.69-1.17,1.25l-0.41,2.52
		c-0.01,0.03,0.03,0.06,0.06,0.03c0.52-0.49,4.87-2.63,6.61-0.29c0,0,0,0,0,0c0.04,0.04,2.91,3.83-1.73,7.5
		c-1.88,1.48-4.03,1.86-6.41,2.05h0c-0.46,0.04-0.85,0.33-1.03,0.75l-0.86,2.07c-0.01,0.02,0,0.05,0.03,0.05
		c0.74,0.03,9.64,0.42,12.63-5.08c0.49-0.89,0.77-1.74,1.06-2.81c0.02-0.08,0.07-0.56,0.07-0.63l0.07-1.94
		C53.55,338.95,53.47,337.97,53.38,337.56z"/>
	<polygon class="st24" points="18.34,352.26 19.6,354.47 37.59,354.47 38.83,352.26 	"/>
	<path class="st23" d="M74.5,324.2h32.57c0,0-0.08,3.95-0.76,9.21c-0.86,6.69-2.69,15.51-6.55,21.06H81.93
		C81.93,354.47,74.93,344.89,74.5,324.2z"/>
	<path class="st23" d="M115.55,337.56c-0.5-2.16-2.09-5.39-8.73-3.87c-0.55,0.13-1.08,0.69-1.17,1.25l-0.41,2.52
		c-0.01,0.03,0.03,0.06,0.06,0.03c0.52-0.49,4.87-2.63,6.61-0.29c0,0,0,0,0,0c0.04,0.04,2.91,3.83-1.73,7.5
		c-1.88,1.48-4.03,1.86-6.41,2.05l0,0c-0.46,0.04-0.85,0.33-1.03,0.75l-0.86,2.07c-0.01,0.02,0,0.05,0.03,0.05
		c0.74,0.03,9.64,0.42,12.63-5.08c0.49-0.89,0.77-1.74,1.06-2.81c0.02-0.08,0.07-0.56,0.07-0.63l0.07-1.94
		C115.73,338.95,115.65,337.97,115.55,337.56z"/>
	<polygon class="st24" points="80.52,352.26 81.78,354.47 99.77,354.47 101.01,352.26 	"/>
	<rect x="352.76" y="246.01" class="st25" width="285.47" height="4.03"/>
	<rect x="354.53" y="348.6" class="st25" width="285.47" height="4.03"/>
	<rect x="352.76" y="296.3" class="st25" width="285.47" height="4.03"/>
	<rect x="354.53" y="400.08" class="st25" width="285.47" height="4.03"/>
	<rect x="706.25" y="245.99" class="st25" width="190.78" height="4.03"/>
	<rect x="707.69" y="347.87" class="st25" width="142.28" height="4.03"/>
	<rect x="706.25" y="296.41" class="st25" width="190.78" height="4.03"/>
	<rect x="707.48" y="399.37" class="st25" width="144.56" height="4.03"/>
	<rect x="481.87" y="210.38" class="st26" width="92.51" height="4.31"/>
	<rect x="728.39" y="210.38" class="st26" width="85.51" height="4.31"/>
	<g>
		<g>
		</g>
	</g>
	<g>
		<g>
			<path class="st26" d="M519.07,176.8c0-0.16-0.16-0.35-0.47-0.56c-0.32-0.21-0.56-0.33-0.73-0.36c-1.06-2.29-1.59-3.44-2.65-5.76
				c0.06-0.08,0.09-0.21,0.09-0.37c0-0.48-0.47-1.35-1.41-2.63c-0.94-1.27-1.42-2.2-1.41-2.76c0-0.2,0.03-0.35,0.09-0.43
				c-1.71-3.81-2.57-5.74-4.28-9.62c0-0.16,0.2-0.4,0.61-0.7c-0.41-0.16-0.62-0.23-1.03-0.39c0-0.04-0.11-0.29-0.34-0.76
				c-0.23-0.46-0.47-0.95-0.73-1.45c-0.26-0.5-0.54-1.04-0.86-1.61c-0.31-0.57-0.62-1.02-0.9-1.37c-0.29-0.34-0.52-0.51-0.69-0.51
				c-0.35,0.01-1.13,2.11-2.34,6.35c-0.06,0.17-0.56,1.49-1.52,4c-0.95,2.5-1.85,4.77-2.69,6.8c-0.84,2.03-1.8,4.31-2.9,6.87
				c-1.1,2.56-2.09,4.6-2.98,6.12c-0.89,1.51-1.63,2.31-2.2,2.37c-0.46,0.05-1.29,0.04-2.5-0.03c-1.2-0.07-1.81-0.19-1.81-0.36
				c-0.14,0.07-0.21,0.1-0.34,0.17c-0.23,0.11-0.53,0.23-0.9,0.36c-0.37,0.13-0.73,0.21-1.08,0.25c-0.75,0.08-1.76-1.07-3.05-3.48
				c-1.29-2.41-2.33-4.72-3.14-6.9c-1.03-2.88-1.55-4.33-2.58-7.25c0.03-0.06,0.05-0.08,0.09-0.14c0-0.09,0-0.16,0-0.2
				c0-0.49-0.49-1.63-1.46-3.45c-0.98-1.82-1.46-3.12-1.46-3.88c0-0.04,0.01-0.11,0.04-0.2c0.03-0.09,0.04-0.16,0.04-0.2
				c-1.21-2.77-2.24-5.36-3.1-7.78c-0.06-0.09-0.53-1.12-1.42-3.12c-0.89-2-1.34-3.47-1.34-4.38c0-0.91,1.73-1.37,5.18-1.37
				c2.99-0.01,4.49,0.3,4.49,0.92c-0.03,0.16-0.05,0.24-0.09,0.4c0,0.31-0.04,0.64-0.13,1c-0.09,0.36-0.25,0.6-0.48,0.74
				c0.07,0.05,0.1,0.08,0.17,0.13c0.11,0.09,0.23,0.22,0.34,0.4c0.11,0.18,0.17,0.4,0.17,0.66c0.69,3.01,1.99,6.67,3.91,10.91
				c1.92,4.24,3.11,6.96,3.57,8.24c0,0.16,0,0.23,0,0.39c1.72,3.91,2.58,5.85,4.29,9.68c0,0.09,0.03,0.13,0.09,0.12
				c0.11-0.01,0.37-0.21,0.78-0.61c0.4-0.4,0.6-0.66,0.6-0.79c2.8-7.66,4.21-11.42,7.02-18.83c0-0.63,0-0.95,0-1.58
				c0-0.34,0.87-2.59,2.6-6.67c0.64-1.6,1.12-3.5,1.74-4.28c0.45-0.57,2.3-0.88,4.49-0.88c4.77-0.01,7.16,0.27,7.16,0.84
				c0,0.33-0.28,0.67-0.82,1.04c-0.55,0.37-0.82,0.74-0.82,1.11c0,0.82,0.57,2.24,1.71,4.25c1.14,2.01,1.8,3.22,1.97,3.67
				c3.21,4.57,4.81,7.7,4.8,9.54c1.27,2.32,1.9,3.47,3.17,5.76c-0.06,0.08-0.09,0.18-0.09,0.3c0,0.44,0.26,0.93,0.77,1.47
				c0.52,0.54,1,0.88,1.46,1.01c1.21-1.42,2.47-4.6,3.78-9.5c1.31-4.9,2.5-9.39,3.58-13.47c1.08-4.09,2.04-6.23,2.74-6.29
				c0.37-0.03,0.88,0.06,1.42,0.17c0.55,0.12,1.16,0.17,1.85,0.17c0.52,0,1.15-0.13,1.9-0.38c0.75-0.25,1.27-0.37,1.55-0.37
				c0.46,0,0.89,0.21,1.29,0.63c0.4,0.42,0.6,0.76,0.6,1.03c0,0.15-0.19,0.49-0.56,1c-0.38,0.52-0.56,0.8-0.56,0.83
				c-1.16,3.14-1.75,5.93-1.76,8.35c0,0.61,0.02,1.03,0.08,1.26c-1.16,2.48-2.2,4.9-3.13,7.25c-0.12,0.2-0.57,1.25-1.35,3.18
				c-0.78,1.93-1.49,3.64-2.13,5.13c-0.64,1.49-1.39,3.16-2.26,5.01c-0.87,1.85-1.66,3.32-2.39,4.39c-0.72,1.08-1.31,1.63-1.77,1.67
				c-0.86,0.07-2.14,0.03-3.84-0.13C521.12,176.78,519.87,176.73,519.07,176.8z M473.7,154.87c-0.03,0.03-0.05,0.04-0.09,0.07
				c0,0.04,0.04,0.11,0.13,0.19c0.09,0.09,0.19,0.19,0.3,0.32c0.11,0.13,0.2,0.24,0.26,0.32c1.72-1.02,2.59-2.07,2.59-3.17
				c0-0.35-0.34-0.96-1.03-1.82c-0.4-0.43-0.77-1.54-1.12-3.32c-0.34-1.79-0.86-3.37-1.55-4.74c-0.69-1.37-1.75-2.06-3.19-2.04
				c0-0.19,0-0.28,0-0.47c-0.81,0.01-1.52,0.17-2.16,0.49c0.4,0.4,0.85,1.16,1.34,2.25c0.49,1.1,0.76,1.71,0.82,1.84
				c0.4,0.53,0.75,1.49,1.03,2.87c0.8-0.07,1.52-0.35,2.16-0.86c-0.06,0.05-0.4,0.31-1.04,0.8c-0.63,0.49-1.01,0.78-1.12,0.87
				c0,0.08,0,0.12,0,0.2c0,0.49,0.21,1.14,0.65,1.93c0.43,0.79,0.93,1.17,1.51,1.15c0.11,0,0.37-0.08,0.78-0.23
				c0.4-0.15,0.69-0.23,0.86-0.23c-0.75,0.34-1.12,0.82-1.12,1.44c0,0.49,0.4,0.72,1.21,0.68c0.17-0.01,0.32-0.03,0.43-0.08
				C474.24,154.04,473.7,154.56,473.7,154.87z M478.61,157.22c0-0.31-0.2-0.86-0.6-1.65c-0.4-0.79-0.69-1.19-0.86-1.18
				c-0.98,0.04-1.81,1.12-2.5,3.24c1.1-0.06,1.65-0.09,2.76-0.14c-0.06,0.05-0.26,0.14-0.6,0.26c-0.34,0.13-0.59,0.24-0.73,0.34
				c-0.14,0.1-0.3,0.23-0.47,0.39c-0.17,0.17-0.26,0.36-0.26,0.58c0,1.82,0.69,3.55,2.06,5.18c0.52-0.04,1.02-0.29,1.51-0.76
				c0.49-0.47,0.85-0.9,1.08-1.29c0.23-0.39,0.35-0.62,0.35-0.71c-1.38,0.08-2.07,0.13-3.45,0.21c0-0.27,0-0.4,0-0.66
				c1.07-0.07,1.6-0.1,2.67-0.16c0-0.71,0-1.07,0-1.78c-0.29,0.02-0.62,0.18-0.99,0.48c-0.37,0.31-0.68,0.47-0.91,0.48
				c0-0.35,0.16-0.82,0.48-1.41C478.45,158.04,478.61,157.57,478.61,157.22z M478.08,166.62c0.23,0.25,0.42,0.65,0.56,1.21
				c0.14,0.56,0.37,0.97,0.69,1.23c0.31,0.26,0.85,0.36,1.59,0.3c1.26-0.1,1.9-0.46,1.9-1.07c0-0.83-0.37-1.32-1.12-1.48
				c-0.06,0.22-0.26,0.49-0.6,0.8c-0.34,0.31-0.57,0.47-0.69,0.48c-0.03,0-0.05,0-0.09,0.01c-0.06-0.04-0.12-0.06-0.17-0.05
				c0.75-1.63,1.12-2.6,1.12-2.9c0-1.35-0.31-2.01-0.95-1.97c-0.46,0.25-0.91,0.56-1.34,0.94c-0.43,0.38-0.75,0.7-0.95,0.96
				c-0.2,0.26-0.3,0.43-0.3,0.52c0,0.03,0,0.04,0,0.07c0.96-0.07,1.45-0.1,2.41-0.17C479.32,165.94,478.91,166.17,478.08,166.62z
				 M479.45,170.86c0,0.13,0,0.2,0,0.33c0,0.66,0.23,0.97,0.69,0.93c0.57-0.05,1.18-0.36,1.81-0.91c0.63-0.55,0.95-1.03,0.95-1.42
				c0-0.04-0.03-0.11-0.09-0.19c0-0.03,0-0.04,0-0.07c-1.31,0.26-1.96,0.4-3.27,0.66C479.48,170.2,479.45,170.43,479.45,170.86z
				 M483.33,170.67c-1.72,0.93-2.59,1.99-2.59,3.17c0.38-0.04,0.57-0.05,0.95-0.09c0.8-0.07,1.36-0.24,1.68-0.51
				c0.32-0.27,0.47-0.86,0.48-1.77C483.84,170.95,483.67,170.68,483.33,170.67z M484.87,175.34c-0.41,0.53-0.62,0.8-1.03,1.33
				c0.29,0.02,0.46,0.02,0.52,0.01c1.26-0.12,3.19-0.86,5.77-2.16c2.94-6.2,4.93-10.34,5.97-12.59c0-0.35,0-0.53,0-0.88
				c-1.27,0.37-2.46,2.2-3.59,5.52c-1.13,3.33-1.92,5.31-2.38,5.9c-0.29,0.37-0.79,0.84-1.51,1.42c-0.72,0.58-1.34,0.89-1.85,0.94
				c-0.57,0.05-1.03-0.12-1.38-0.52c-0.34-0.4-0.72-0.58-1.12-0.55c-1.72,0.16-2.58,0.43-2.58,0.83c0,0.39,0.37,0.84,1.12,1.33
				C483.15,175.89,483.84,175.7,484.87,175.34z M484.87,177.29c0.34,0.57,2.08,1.04,3.7,0.53c0.65-0.2,1.12-1.12,1.12-2.1
				C488.31,175.85,486.71,176.37,484.87,177.29z M497.83,157.05c-1.9,0.09-2.85,1.32-2.85,3.68c1.04-0.48,1.77-0.98,2.2-1.51
				C497.61,158.7,497.83,157.98,497.83,157.05z M496.02,156.19c0,0.29,0.2,0.5,0.6,0.6c1.32-0.82,2.19-1.75,2.59-2.81
				c-1.44,0.06-2.16,0.32-2.16,0.78c0,0.46,0.2,0.73,0.6,0.79c-0.23,0.01-0.56,0.1-0.99,0.26
				C496.24,155.98,496.02,156.11,496.02,156.19z M500.95,149.86c-1.09,0.03-2.01,0.46-2.76,1.28c-0.75,0.82-1.12,1.65-1.13,2.49
				c1.9-0.07,2.85-0.49,2.85-1.24c-0.45-0.16-0.67-0.24-1.12-0.4c0.23,0.08,0.4,0.11,0.52,0.11
				C500.4,152.06,500.95,151.31,500.95,149.86z M499.92,148.45c-0.69,0.02-1.15,0.1-1.38,0.26c-0.23,0.15-0.35,0.5-0.35,1.05
				c1.78-0.05,2.67-0.41,2.68-1.08C500.87,148.51,500.55,148.43,499.92,148.45z M500.87,145.36c-0.63,0.01-1.18,0.44-1.64,1.28
				c0.11,0,1.04-0.32,2.76-0.93C501.82,145.47,501.45,145.35,500.87,145.36z M501.47,146.85c-0.86,0.02-1.61,0.31-2.24,0.87
				c0.9-0.02,1.35-0.03,2.24-0.05C501.47,147.33,501.47,147.17,501.47,146.85z M506.22,146.07c0,0.37,1.26,0.53,3.79,0.48
				c0-0.94-0.41-2.14-1.24-3.62c-0.83-1.48-1.76-2.22-2.8-2.22c-1.21,0.01-2.22,0.29-3.02,0.83c0.45-0.3,0.67-0.45,1.12-0.75
				c0-0.04-0.14-0.11-0.43-0.21c-0.29-0.1-0.52-0.15-0.69-0.15c-1.15,0.01-1.73,0.91-1.73,2.7c0.52-0.01,0.78-0.01,1.29-0.02
				c-1.15,0.68-1.73,1.23-1.73,1.65c1.09-0.02,1.81-0.32,2.16-0.91c0.11,0.33,0.49,0.67,1.12,1.01c0.63,0.34,1.18,0.5,1.64,0.5
				c0.63-0.01,1.18-0.41,1.64-1.2c0.4,0.28,0.6,0.46,0.6,0.54c0,0.08-0.22,0.3-0.65,0.66C506.87,145.69,506.51,145.94,506.22,146.07
				z M507.34,147.52c0,0.29,0.17,0.43,0.52,0.42c0.17,0,0.45-0.1,0.82-0.3c0.37-0.19,0.62-0.35,0.73-0.48c-0.1,0-0.16,0-0.26,0.01
				c-0.1-0.02-0.16-0.03-0.26-0.06C508.32,147.13,507.8,147.26,507.34,147.52z M508.88,150.55c0.17,0.32,0.52,0.47,1.03,0.46
				c0.46-0.01,0.86-0.2,1.21-0.56c0.35-0.36,0.52-0.72,0.52-1.08c0-0.61-0.4-1.35-1.2-2.23c-1.5,1.09-2.25,1.67-2.25,1.71
				c0,0.45,0.52,0.66,1.55,0.63c0.69-0.02,1.09-0.05,1.21-0.09C509.98,149.78,509.28,150.17,508.88,150.55z M512.33,150.81
				c-0.34-0.08-0.91,0.26-1.34,0.74c-0.43,0.48-0.65,0.89-0.65,1.21c1.14-0.04,1.71-0.06,2.85-0.1c-0.03-0.14-0.05-0.22-0.08-0.36
				c-0.06-0.28-0.14-0.57-0.26-0.87C512.73,151.13,512.52,150.85,512.33,150.81z M510.42,154.23c0,0.12,0.14,0.23,0.43,0.32
				c0.29,0.09,0.52,0.13,0.69,0.13c0.98-0.73,1.5-1.13,1.56-1.21c-0.23-0.07-0.58-0.1-1.03-0.08
				C510.97,153.41,510.43,153.7,510.42,154.23z M511.45,157.48c-0.03,0-0.05,0-0.09,0c-0.06,0,0.1,0.13,0.47,0.37
				c0.37,0.25,0.79,0.52,1.25,0.82c1.09-0.5,1.64-1,1.64-1.53c0-0.44-0.17-0.7-0.52-0.76c0.29-0.21,0.43-0.42,0.43-0.62
				c0-0.24-0.11-0.51-0.34-0.8c-0.23-0.29-0.55-0.43-0.95-0.42c-0.29,0.01-0.68,0.22-1.17,0.62c-0.49,0.41-0.74,0.65-0.74,0.73
				c0,0.04,0.1,0.18,0.3,0.41c0.2,0.24,0.3,0.41,0.3,0.53c-0.06,0.04-0.14,0.11-0.26,0.19c-0.12,0.09-0.2,0.16-0.26,0.22
				C511.48,157.33,511.45,157.4,511.45,157.48z M514.63,160.42c-0.75,0.48-1.12,0.93-1.13,1.33c0.69-0.04,1.22-0.27,1.6-0.69
				c0.37-0.42,0.96-0.67,1.77-0.75c-0.48-1.01-0.72-1.52-1.2-2.54c-0.69,0.03-1.55,0.69-2.59,2
				C513.43,160.04,513.94,160.26,514.63,160.42z M517.91,160.92c-0.17,0.01-0.33,0.03-0.47,0.05c-0.14,0.03-0.29,0.07-0.43,0.11
				c-0.14,0.05-0.27,0.08-0.39,0.11c-0.12,0.03-0.23,0.08-0.35,0.17c-0.12,0.09-0.22,0.15-0.3,0.2c-0.09,0.04-0.2,0.13-0.35,0.26
				c-0.14,0.13-0.25,0.22-0.3,0.26c-0.06,0.04-0.17,0.15-0.35,0.32c-0.17,0.17-0.29,0.28-0.35,0.32c1.15-0.06,1.98-0.21,2.5-0.44
				C517.65,162.06,517.91,161.6,517.91,160.92z M514.62,164.18c0,0.2,0.1,0.45,0.3,0.74c0.2,0.29,0.39,0.43,0.56,0.42
				c0.63-0.04,1.25-0.36,1.86-0.95c0.61-0.6,0.91-1.13,0.91-1.61C515.83,162.9,514.62,163.37,514.62,164.18z M516.25,166.19
				c0,0.24,0.2,0.41,0.6,0.5c0.06,0,0.19-0.01,0.39-0.02c0.2-0.01,0.34-0.02,0.43-0.03c0.09-0.01,0.22-0.01,0.39-0.02
				c0.17-0.01,0.3-0.03,0.39-0.05c0.09-0.03,0.2-0.05,0.35-0.08c0.14-0.03,0.24-0.08,0.3-0.14c0.06-0.06,0.13-0.13,0.22-0.19
				c0.09-0.07,0.14-0.14,0.17-0.22c0.03-0.08,0.04-0.18,0.04-0.3c0-0.8-0.37-1.36-1.12-1.67
				C516.97,165.28,516.25,166.03,516.25,166.19z M516.85,167.54c0,0.92,0.34,1.46,1.03,1.61c1.44-1.1,2.16-1.98,2.16-2.66
				c-0.17,0.05-0.53,0.14-1.08,0.28c-0.55,0.13-1.04,0.27-1.47,0.39C517.07,167.29,516.85,167.42,516.85,167.54z M518.39,170.98
				c0,0.68,0.15,1.1,0.47,1.25c0.31,0.16,0.87,0.2,1.68,0.14c0.21-0.02,0.31-0.02,0.52-0.04c0.29-0.06,0.46-0.09,0.52-0.1
				c-0.41-0.09-0.62-0.13-1.03-0.22c0.75-0.97,1.13-1.51,1.13-1.63C520.58,170.46,519.49,170.66,518.39,170.98z M520.56,167.89
				c-1.32,0.6-1.99,1.29-1.99,2.05c1.67-0.12,2.5-0.49,2.5-1.13C521.08,168.22,520.9,167.91,520.56,167.89z M519.94,173.2
				c0,0.2,0.14,0.55,0.43,1.04c0.29,0.49,0.6,0.73,0.95,0.7c0.11-0.01,0.2-0.04,0.26-0.08c1.24-0.84,1.87-1.25,3.11-2.08
				c0-0.19,0-0.28,0-0.47c-0.58,0.04-1.38,0.19-2.42,0.45C521.23,173.01,520.46,173.16,519.94,173.2z M526.93,172.44
				c-0.81,0.06-1.48,0.37-2.03,0.95c-0.55,0.57-0.82,1.16-0.82,1.75c1.21-0.1,1.98-0.36,2.33-0.8
				C526.75,173.9,526.92,173.27,526.93,172.44z M529.01,168.42c-0.23,0.09-0.59,0.3-1.08,0.63c-0.49,0.33-1.05,0.72-1.69,1.17
				c-0.63,0.46-1.15,0.8-1.56,1.02C526.99,171.08,528.43,170.14,529.01,168.42z M525.9,168.62c0,0.28,0.14,0.4,0.43,0.39
				c1.26-0.08,2.3-0.62,3.11-1.61c0.81-0.99,1.21-1.89,1.22-2.71c-2.59,1.55-3.89,2.46-3.89,2.69c0,0.08,0.16,0.17,0.47,0.27
				c0.31,0.1,0.56,0.14,0.73,0.13C526.88,167.96,526.19,168.24,525.9,168.62z M527.38,163.87c0,0.68,0,1.02-0.01,1.71
				c0.92-0.05,2.01-0.68,3.28-1.88C529.35,163.76,528.7,163.8,527.38,163.87z M528.6,162.75c0,0.24,0.43,0.33,1.29,0.29
				c1.95-0.1,2.94-1.1,2.94-3c-0.75,0.15-1.64,0.52-2.68,1.12C529.12,161.74,528.6,162.28,528.6,162.75z M530.85,159.65
				c-0.75,0.03-1.35,0.43-1.82,1.2c0.1,0.02,0.16,0.03,0.26,0.05c0.29-0.01,0.62-0.17,0.99-0.46
				C530.66,160.15,530.85,159.88,530.85,159.65z M530.08,158.63c0,0.04,0.09,0.1,0.26,0.19c0.17,0.09,0.29,0.13,0.34,0.13
				c1.55-0.07,2.66-0.37,3.32-0.9c0.66-0.53,1-1.35,1-2.48C533.91,155.93,532.27,156.94,530.08,158.63z M533.8,154.87
				c-1.27,0.04-2.1,0.2-2.5,0.47c-0.4,0.27-0.61,0.87-0.61,1.81c0.35-0.29,0.95-0.66,1.82-1.12c0.86-0.46,1.5-0.85,1.9-1.17
				C534.16,154.86,534.04,154.86,533.8,154.87z M536.57,150.84c-0.23,0.12-0.66,0.36-1.3,0.7c-0.63,0.35-1.14,0.62-1.51,0.83
				c-0.38,0.21-0.79,0.45-1.25,0.74c-0.46,0.29-0.81,0.54-1.04,0.76c-0.23,0.22-0.35,0.39-0.35,0.51c2.07-0.07,3.5-0.31,4.27-0.72
				C536.18,153.24,536.57,152.31,536.57,150.84z M534.42,150.2c-1.04,0.03-1.83,0.25-2.38,0.67c-0.55,0.42-0.82,0.87-0.82,1.34
				c0.63-0.02,1.21-0.13,1.73-0.34c0.52-0.21,1.08-0.51,1.69-0.89c0.61-0.38,1.05-0.64,1.34-0.76c-0.06,0-0.3,0-0.73-0.01
				C534.81,150.2,534.53,150.2,534.42,150.2z M536.59,146.22c-1.48,0.03-2.23,0.04-3.71,0.06c-0.29,0.01-0.56,0.19-0.82,0.57
				c-0.26,0.38-0.39,0.68-0.39,0.91c0,0.07,0,0.11,0,0.18c0.03,0.07,0.05,0.1,0.09,0.17c0.75-0.21,1.7-0.55,2.85-1.02
				C535.75,146.62,536.42,146.33,536.59,146.22z M532.27,149.15c0.34,0.15,0.73,0.34,1.03,0.38c1.33,0.19,2.75-0.28,3.41-0.72
				c0.66-0.44,1-1.18,1-2.22c-0.24,0-0.36,0.01-0.6,0.01C535.17,147.62,534.2,148.12,532.27,149.15z M537.38,141.93
				c-2.76,0.02-4.14,0.52-4.15,1.49c0,0.14,0,0.21,0,0.35c0.06,0.19,0.08,0.33,0.08,0.41c2.25-0.96,3.69-1.71,4.32-2.25
				C537.54,141.93,537.48,141.93,537.38,141.93z M534.45,140.85c0,0.35-0.2,0.62-0.61,0.82c2.3-0.02,3.74-0.17,4.32-0.44
				c0-0.55,0-0.83,0-1.38c-1.15,0.01-2.39-0.12-3.71-0.39c-0.4,0.08-0.61,0.33-0.61,0.76c0,0.23,0.1,0.39,0.3,0.46
				C534.35,140.75,534.45,140.81,534.45,140.85z M538.16,142.67c-0.17,0.12-0.69,0.35-1.56,0.71c-0.86,0.36-1.54,0.71-2.03,1.07
				c-0.49,0.36-0.74,0.75-0.74,1.17c3.28-0.05,4.92-0.86,4.93-2.44c0-0.08-0.07-0.18-0.21-0.31
				C538.4,142.74,538.27,142.67,538.16,142.67z"/>
			<path class="st26" d="M564.79,153.06c0.46,0.28,0.75,0.42,0.86,0.42c0.46-0.01,0.69-0.2,0.69-0.57c3.87-0.09,5.8-0.13,9.67-0.21
				c0.46,0.39,0.8,0.76,1.03,1.12c0.41-0.14,0.62-0.21,1.04-0.35c-0.35,0.22-0.52,0.7-0.52,1.42c0,1.33,0.02,2.09,0.08,2.27
				c-0.45,0.25-0.67,0.37-1.12,0.63c-3.97,0.11-10.74,0.44-20.29,1.08c-0.06,0-0.19,0-0.39-0.01c-0.2-0.01-0.36-0.01-0.47-0.01
				c-0.46,0.02-0.69,0.14-0.69,0.36c-0.01,4.17-0.02,6.25-0.04,10.41c0.24,0.23,0.36,0.35,0.6,0.58c0.06,0.07,1.14,0.1,3.24,0.08
				c2.1-0.02,3.93-0.07,5.48-0.14c0.69-0.03,2.09-0.27,4.19-0.7c2.1-0.43,3.61-0.66,4.54-0.7c2.53-0.11,3.97-0.06,4.32,0.14
				c0.24,0.1,0.36,0.15,0.6,0.25c0.06-0.22,0.37-0.34,0.95-0.36c0.06,0,0.2,0,0.43,0.01c0.23,0.01,0.46,0.01,0.69,0
				c-0.38,0.12-0.57,0.18-0.95,0.31c0.1-0.03,0.16-0.04,0.26-0.06c0.11,0,0.26-0.01,0.43-0.02c0.17-0.01,0.35-0.01,0.52-0.02
				c0.98-0.04,1.55,0.05,1.73,0.25c0,0.04,0.03,0.07,0.09,0.1c0.06,0,0.24-0.07,0.56-0.21c0.32-0.14,0.5-0.21,0.56-0.21
				c0.81,0.29,1.21,0.85,1.2,1.67c-0.01,2.07-0.41,3.4-1.22,3.97c-0.12,0.01-0.52,0.03-1.21,0.08c-0.69,0.05-1.07,0.08-1.12,0.08
				c-2.59,0.12-4.84-0.05-6.74-0.54c-8.91,0.45-13.37,0.71-22.28,1.29c-2.47,0.16-4.16-0.26-4.31-0.9c-0.2-0.84,0.1-2.86,0.28-5.17
				c0.18-2.31,0.27-4.04,0.28-5.17c0.02-5.29-0.34-8.96-1.08-11.02c0.02-6.02,0.03-9.03,0.05-15.04c4.28-0.01,6.42-0.01,10.7-0.02
				c1.09,0.26,2.7,0.38,4.83,0.38c0.69,0,1.28-0.3,1.56-0.39c1.12-0.37,3.97-0.06,6.73-0.17c2.76-0.11,4.26-0.17,4.49-0.17
				c0.75,0,3.02,0.11,6.82,0.32c0.23,0.07,0.46,0.3,0.69,0.7c0,0.5-0.13,1.02-0.39,1.56c-0.26,0.54-0.39,1.02-0.39,1.45
				c0,0.04,0.01,0.13,0.04,0.27c0.03,0.14,0.04,0.25,0.04,0.32c-0.83,0.13-1.24,0.2-2.07,0.34c-2.42-0.09-4.86-0.13-7.34-0.11
				c-6.39,0.05-12.09,0.5-17.09,1.37c-0.46,0.64-0.7,1.37-0.7,2.19c0,0.37,0.11,0.95,0.34,1.73c0.23,0.78,0.34,1.37,0.34,1.78
				c-0.29,1.54-0.5,2.62-0.62,3.26c0.41,0.26,0.62,0.39,1.03,0.64c0.48,0.01,0.72,0.01,1.21,0.02c0.8,0.02,1.32,0.02,1.55,0.01
				c1.44-0.04,2.78-0.15,4.01-0.32C563.74,153.16,564.5,153.07,564.79,153.06z M551.62,140.91c-0.49,0.57-0.73,0.85-1.21,1.42
				c0.24,0,0.36,0,0.6-0.01c0.46,0,1.71-0.32,3.76-0.93c2.04-0.61,3.1-1,3.15-1.19c-0.92-0.26-2.36-0.38-4.31-0.37
				c-2.76,0.01-4.14,0.04-4.14,0.07c-0.24,0.68-0.37,1.02-0.61,1.7C549.43,141.6,550.36,141.37,551.62,140.91z M551.62,142.99
				c-1.55,0.02-2.33,0.4-2.33,1.15c1.09-0.01,1.99-0.4,2.68-1.16C551.82,142.99,551.75,142.99,551.62,142.99z M551.61,145.81
				c-0.23,0.19-0.66,0.4-1.3,0.61c-0.63,0.22-0.95,0.53-0.95,0.95c0,0.04,0,0.13,0,0.28c0.03,0.09,0.05,0.13,0.09,0.22
				c0.98-0.55,1.66-1.01,2.03-1.39c0.37-0.38,0.56-0.91,0.57-1.58c0-0.04-0.01-0.18-0.04-0.42c-0.03-0.24-0.04-0.38-0.04-0.42
				c-0.17,0.11-0.48,0.28-0.91,0.49c-0.43,0.21-0.81,0.4-1.12,0.55c-0.32,0.15-0.48,0.27-0.48,0.35c0,0.3,0.46,0.45,1.38,0.43
				c0.11,0,0.26-0.01,0.43-0.03C551.43,145.82,551.55,145.81,551.61,145.81z M550.99,149.98c-1.04,0.02-1.55,0.13-1.55,0.32
				c0,0.9,0,1.36-0.01,2.26c0.57-0.02,1.27-0.28,2.07-0.79c0.81-0.51,1.21-0.98,1.21-1.43c0-0.07-0.22-0.15-0.65-0.24
				C551.64,150.02,551.27,149.98,550.99,149.98z M549.76,155.15c0,0.3,0.2,0.8,0.6,1.5c1.11-0.76,1.66-1.14,2.77-1.89
				c0-0.18,0-0.27,0-0.45C550.89,154.38,549.76,154.66,549.76,155.15z M552.81,147.42c-0.98,0.02-1.96,0.63-2.94,1.86
				c1.44-0.03,2.29-0.13,2.55-0.31C552.67,148.8,552.81,148.28,552.81,147.42z M551.28,165.23c-0.81,0.04-1.21,0.64-1.21,1.81
				c0.03,0.27,0.05,0.4,0.08,0.67c0.31-0.02,0.47-0.02,0.78-0.04c0.11-0.01,0.3-0.21,0.56-0.62c0.26-0.41,0.39-0.7,0.39-0.89
				c0-0.68-0.17-1-0.51-0.99C551.33,165.2,551.31,165.21,551.28,165.23z M553.14,152.29c-0.69,0.02-1.34,0.17-1.94,0.47
				c-0.61,0.3-0.91,0.65-0.91,1.07C552.18,153.78,553.13,153.27,553.14,152.29z M551.9,159.02c-1.1,0.64-1.64,1.13-1.65,1.47
				c0.69-0.03,1.15-0.11,1.38-0.25c0.23-0.14,0.35-0.42,0.35-0.83C551.96,159.25,551.94,159.17,551.9,159.02z M552.17,157.49
				c-1.21,0.04-1.81,0.35-1.82,0.91C551.56,158.36,552.17,158.05,552.17,157.49z M550.34,161.84c0,0.19,0.2,0.41,0.6,0.65
				c0.46-0.13,0.69-0.52,0.69-1.16C550.77,161.37,550.34,161.54,550.34,161.84z M550.31,169.85c0,0.43,0,0.64,0,1.07
				c0.86-0.05,1.3-0.43,1.3-1.14C551.09,169.8,550.83,169.82,550.31,169.85z M550.3,173.06c0,0.15,0.2,0.35,0.6,0.58
				c1.56-1.11,2.34-1.75,2.34-1.94c-0.55,0.03-0.83,0.05-1.38,0.08c0-0.25,0-0.37,0-0.62c-0.23,0.09-0.75,0.68-1.56,1.78
				C550.3,173,550.3,173.02,550.3,173.06z M551.98,163.06c-0.86,0.04-1.3,0.6-1.3,1.69C551.54,164.72,551.97,164.15,551.98,163.06z
				 M555.22,172.32c-0.98,0.32-1.9,0.73-2.77,1.23c0.69-0.04,1.19-0.14,1.51-0.29C554.28,173.11,554.7,172.8,555.22,172.32z
				 M556.23,156.46c0,0.25,0,0.37,0,0.61c0.69-0.02,1.44-0.17,2.25-0.43c0.81-0.27,1.21-0.6,1.21-1.01
				c-2.42,0.07-3.63,0.11-6.04,0.18c-0.4,0.01-0.61,0.26-0.61,0.75C554.31,156.52,554.95,156.5,556.23,156.46z M557.55,172.85
				c-0.52,0.03-0.98,0.19-1.38,0.47c0.06,0,0.16,0,0.3,0.01c0.14,0.01,0.24,0.01,0.3,0.01c0.52-0.03,0.86-0.2,1.04-0.51
				C557.71,172.84,557.66,172.85,557.55,172.85z M560.08,140.86c-0.23,0.04-0.45,0.13-0.65,0.28c-0.2,0.15-0.33,0.3-0.39,0.45
				c-0.03,0.07-0.05,0.1-0.09,0.17c0,0.07,0.09,0.11,0.26,0.11c0.63,0,0.95-0.21,0.95-0.62
				C560.13,141.09,560.12,141.01,560.08,140.86z M564.09,155.07c-1.04-0.01-2,0.21-2.89,0.66c-0.89,0.45-1.34,0.97-1.34,1.57
				c0.92-0.03,1.94-0.27,3.07-0.73c1.12-0.46,1.92-0.95,2.38-1.47c-0.06,0-0.26,0-0.6-0.01
				C564.35,155.07,564.14,155.06,564.09,155.07z M563.69,171.79c-1.73,0.09-2.97,0.53-3.72,1.31c0.06,0,0.3-0.01,0.73-0.01
				c0.43-0.01,0.7-0.01,0.82-0.02c1.78-0.1,2.85-0.52,3.2-1.28c-0.17-0.01-0.26-0.02-0.43-0.03
				C563.94,171.78,563.74,171.79,563.69,171.79z M563.28,139.85c-0.24,0.13-0.36,0.2-0.61,0.33c0.24,0,0.36,0,0.6,0
				C563.28,140.05,563.28,139.98,563.28,139.85z M566.94,155.04c-1.07,0.71-1.61,1.07-2.68,1.78c1.07-0.03,1.61-0.05,2.68-0.08
				c0.4-0.01,0.61-0.58,0.61-1.72C567.3,155.03,567.18,155.04,566.94,155.04z M568.69,171.54c-0.35,0.02-0.95,0.41-1.82,1.19
				c0.63-0.03,1.33-0.42,2.08-1.15C568.84,171.55,568.75,171.53,568.69,171.54z M573.33,154.56c-1.27,0.28-2.16,0.85-2.68,1.7
				c1.73-0.05,2.59-0.07,4.32-0.11C574.33,155.69,573.78,155.16,573.33,154.56z M571.72,170.73c-0.58,0.03-0.95,0.15-1.12,0.38
				c0.92-0.04,1.47-0.18,1.64-0.41C572.03,170.72,571.93,170.72,571.72,170.73z M572.67,171.02c-0.83,0.45-1.25,0.68-2.08,1.14
				c1.44-0.07,2.51-0.34,3.2-0.81c0,0.26,0,0.39,0,0.65c1.69-0.49,2.54-0.74,4.24-1.22C575.88,170.87,574.81,170.92,572.67,171.02z
				 M572.77,139.43c-0.06,0.11-0.09,0.24-0.09,0.38c0,0.47,0.46,0.71,1.38,0.7c1.73-0.01,2.59-0.37,2.59-1.09
				C575.1,139.42,574.33,139.43,572.77,139.43z M578.02,171.48c-0.29,0.01-0.79,0.13-1.51,0.34c-0.72,0.21-1.08,0.38-1.08,0.48
				c0,0.22,0,0.33,0,0.54c1.44-0.07,2.53-0.53,3.29-1.4C578.44,171.46,578.3,171.46,578.02,171.48z M579.06,170.73
				c0,0.95,0,1.43-0.01,2.38c1.55-0.07,2.33-0.89,2.34-2.47C580.46,170.67,579.99,170.69,579.06,170.73z"/>
			<path class="st26" d="M589.18,165.42c-0.17,0.01-0.26,0.01-0.43,0.01c0-0.11,0.09-0.65,0.26-1.64c0.18-0.98,0.41-2.22,0.7-3.7
				c0.29-1.48,0.58-2.67,0.87-3.56c-0.75-1.37-1.11-4.12-1.1-8.24c0-0.64,0.02-1.63,0.05-2.96c0.03-1.33,0.05-2.3,0.05-2.91
				c-0.52-0.25-0.77-1.31-0.77-3.2c0-0.46,0.06-0.73,0.17-0.8c0.45-0.26,0.67-0.38,1.12-0.64c2.76,0,4.14,0,6.9,0
				c0.24,0.13,0.36,0.19,0.6,0.32c0.38,1.31,0.56,1.97,0.94,3.27c0.4,1.58,0.59,3.69,0.59,6.33c0,1.8-0.3,4.46-0.88,7.99
				c-0.58,3.53-0.88,6.2-0.88,8c0,0.21,0.01,0.51,0.04,0.9c0.03,0.39,0.06,0.74,0.08,1.06c0.03,0.32,0.04,0.49,0.04,0.53
				c0.38,0.26,0.57,0.4,0.95,0.66c-0.35,0.08-0.52,0.24-0.52,0.49c0,0.11,0.04,0.26,0.13,0.47c0.09,0.21,0.13,0.33,0.13,0.37
				c0.4,0.02,2.38,0.01,5.92-0.03c3.54-0.04,5.6-0.06,6.18-0.07c0.57,0.27,1.61,0.38,3.11,0.35c1.56-0.03,3.34-0.19,5.36-0.47
				c2.02-0.28,3.57-0.42,4.67-0.44c0,0.35,0.1,0.81,0.3,1.4c0.2,0.59,0.3,1.03,0.3,1.34c0,0.31-0.29,0.64-0.87,0.97
				c-0.58,0.34-0.98,0.51-1.21,0.51c-1.38-0.18-2.45-0.27-3.2-0.25c-1.9,0.84-4.44,1.29-7.61,1.37c-0.81,0.02-1.93,0.02-3.37,0.01
				c-1.44-0.01-2.45-0.01-3.03,0.01c-0.29,0.01-1.01,0.04-2.16,0.09c-1.15,0.05-2.1,0.09-2.85,0.12
				c-7.09,0.24-10.63-0.51-10.62-2.33C589.17,168.62,589.18,167.55,589.18,165.42z M591.08,166.05c0,0.11,0.1,0.33,0.3,0.68
				s0.3,0.54,0.3,0.58c0,0.28,0.14,0.95,0.43,2.01c1.09-0.39,1.99-0.86,2.68-1.41c-0.81-0.19-1.32-0.4-1.55-0.64
				c0.35-0.01,0.71-0.08,1.08-0.19c0.37-0.12,0.56-0.21,0.56-0.28c0-0.14-0.23-0.31-0.69-0.51c0-0.11,0.14-0.34,0.43-0.7
				c0.29-0.36,0.43-0.68,0.43-0.97c-0.97,0.03-1.45,0.04-2.42,0.07c1.15-0.14,1.92-0.43,2.29-0.86c0.38-0.43,0.56-1.06,0.57-1.87
				c-2.07,0.05-3.33,0.34-3.76,0.87C591.3,163.34,591.08,164.42,591.08,166.05z M594.26,141.66c-0.17,0.28-0.58,0.79-1.21,1.52
				c-0.64,0.73-0.95,1.31-0.95,1.73c0.81-0.01,1.38-0.02,1.73-0.04c0.35-0.02,0.78-0.08,1.29-0.17c0.52-0.09,0.89-0.25,1.12-0.48
				c0.23-0.23,0.35-0.54,0.35-0.93c0.01-2.82-0.54-4.23-1.63-4.23c-0.23,0-1.29,0.13-3.19,0.38c0.11,1.31,0.48,1.97,1.12,1.96
				c0.11,0,0.26-0.02,0.43-0.05c0.17-0.04,0.29-0.05,0.35-0.05C593.88,141.29,594.08,141.41,594.26,141.66z M594.24,148.24
				c-0.86,0.01-1.44,0.09-1.73,0.23c-0.29,0.15-0.43,0.45-0.43,0.91c0,0.5,0.03,0.8,0.08,0.9c1.44-0.3,2.54-0.94,3.29-1.9
				c0.75-0.96,1.13-1.94,1.13-2.92c-0.35,0-0.72,0.07-1.12,0.19c-0.4,0.13-0.73,0.24-0.99,0.35c-0.26,0.11-0.61,0.28-1.04,0.51
				c-0.43,0.23-0.72,0.38-0.74,0.41c-0.07,0.13,0.27,0.49,0.82,0.63c0.55,0.14,0.82,0.31,0.82,0.52
				C594.29,148.14,594.27,148.17,594.24,148.24z M593.95,158.91c0,0.28-0.32,0.73-0.95,1.35c-0.64,0.62-0.95,1.14-0.95,1.57
				c1.73-0.05,2.82-0.38,3.29-1.01c0.46-0.63,0.7-1.54,0.7-2.74c0-0.07-0.01-0.39-0.04-0.95c-0.03-0.56-0.04-1.02-0.04-1.38
				c-0.12,0.07-0.33,0.17-0.65,0.3c-0.32,0.13-0.55,0.23-0.69,0.3c-0.14,0.07-0.35,0.17-0.61,0.3c-0.26,0.13-0.45,0.25-0.56,0.36
				c-0.12,0.11-0.25,0.23-0.39,0.35c-0.14,0.13-0.25,0.27-0.3,0.43c-0.06,0.16-0.09,0.33-0.09,0.51c0,0.14,0.22,0.25,0.65,0.33
				C593.73,158.71,593.95,158.8,593.95,158.91z M593.64,145.32c-0.63,0.01-1.12,0.12-1.47,0.33c0.21,0.02,0.31,0.03,0.52,0.05
				c0.63-0.01,1.04-0.13,1.21-0.38C593.8,145.32,593.75,145.32,593.64,145.32z M595.96,149.22c-1.52,1.03-2.28,1.55-3.81,2.6
				c0.35,0.07,0.92,0.09,1.73,0.08c1.27-0.02,2.07-0.23,2.42-0.64c0.35-0.41,0.52-1.09,0.52-2.04
				C596.48,149.22,596.31,149.22,595.96,149.22z M592.15,152.89c0,0.15,0,0.22,0,0.37c1.44-0.02,2.16-0.21,2.16-0.57
				c-0.03-0.06-0.05-0.09-0.09-0.16C593.4,152.67,592.98,152.74,592.15,152.89z M594.79,168.48c-1.07,0.59-1.61,0.88-2.68,1.47
				c2.19-0.08,3.28-0.32,3.29-0.75C595.39,168.89,595.19,168.65,594.79,168.48z M592.1,170.91c0.06,0.25,0.46,0.36,1.21,0.33
				c1.04-0.04,1.79-0.13,2.25-0.29c0.46-0.16,0.92-0.54,1.39-1.16c-0.06,0-0.14,0-0.26-0.02c-0.12-0.01-0.2-0.02-0.26-0.02
				C594.01,169.83,592.57,170.22,592.1,170.91z M592.66,155.53c0,0.3,0,0.45,0,0.74c0.23,0,0.75-0.26,1.56-0.77
				C593.6,155.52,593.29,155.52,592.66,155.53z M595.95,153.04c-0.23,0-1.12,0.49-2.68,1.48c1.07-0.02,1.61-0.03,2.68-0.05
				C595.95,153.89,595.95,153.61,595.95,153.04z M596.25,170.93c2.19-0.07,3.48,0.06,3.89,0.4c0.35-0.01,1.24-0.48,2.68-1.4
				c-1.21,0.03-2.1,0.18-2.68,0.45c0-0.23,0-0.35,0-0.58C597.55,169.88,596.25,170.26,596.25,170.93z M609.91,169.53
				c-4.49,0.11-6.74,0.72-6.74,1.81c1.67-0.05,2.79-0.34,3.37-0.88c0.06,0.14,0.24,0.28,0.56,0.43c0.32,0.15,0.53,0.22,0.65,0.22
				c0.46-0.01,0.94-0.21,1.43-0.59C609.66,170.14,609.91,169.81,609.91,169.53z M610.77,170.09c-0.62,0.39-0.93,0.59-1.56,0.98
				c0.17,0,0.26-0.01,0.43-0.01c0.23,0.03,0.37,0.04,0.43,0.04c0.17,0,0.53-0.08,1.08-0.24c0.55-0.15,0.96-0.23,1.25-0.24
				c0.1,0.06,0.16,0.09,0.26,0.15c0.1,0.08,0.16,0.12,0.26,0.2c1.21-0.03,2.95-0.2,5.23-0.5c2.28-0.31,3.41-0.64,3.42-1.02
				c-1.21,0.02-2.98,0.12-5.32,0.31C613.93,169.94,612.1,170.06,610.77,170.09z"/>
			<path class="st26" d="M623.24,157.75c0.01-5.43,2.84-10.13,8.48-14.06c5.64-3.92,12.86-5.87,21.67-5.87
				c1.5,0,2.53,0.01,3.11,0.03c0.57,0.02,1.64,0.06,3.19,0.13c1.55,0.07,2.7,0.2,3.45,0.39c0.75,0.19,1.63,0.46,2.63,0.8
				c1.01,0.34,1.73,0.81,2.16,1.4c0.43,0.59,0.65,1.28,0.65,2.07c0,0.24-0.12,0.52-0.34,0.83c-0.23,0.31-0.55,0.46-0.95,0.46
				c-0.98,0-2.73-0.27-5.27-0.81c-2.53-0.54-4.52-0.8-5.96-0.8c-3.28,0-7.29,0.54-12,1.6c-7.46,1.67-11.23,6.35-11.24,14.07
				c0,0.07,0.01,0.28,0.04,0.65c0.03,0.36,0.04,0.58,0.04,0.65c0.35,0.07,0.62,0.34,0.82,0.82c0.2,0.48,0.35,1,0.43,1.57
				c0.09,0.57,0.19,0.92,0.3,1.06c2.76,3.8,10.17,5.63,22.21,5.67c1.56,0.01,3.56-0.3,6.01-0.92c2.45-0.62,3.9-0.92,4.36-0.92
				c1.04,0.01,1.56,0.43,1.56,1.26c0,1-0.16,1.9-0.47,2.71c-0.32,0.81-0.71,1.21-1.17,1.2c-0.23,0-0.55-0.02-0.95-0.06
				c-0.24,0-0.36,0-0.61-0.01c-6.11,0.59-10.92,0.91-14.44,0.9c-0.23,0-0.58-0.01-1.04-0.03c-0.46-0.02-0.81-0.03-1.04-0.03
				c-0.17,0.17-0.62,0.33-1.34,0.47c-0.72,0.14-1.34,0.21-1.86,0.21c-6.11-0.26-11.38-1.94-15.82-5.09
				C625.44,164.93,623.23,161.48,623.24,157.75z M625.74,156.79c0,0.12,0,0.19,0,0.31c0,0.86,0.37,1.29,1.12,1.28
				c0.69-0.01,1.81-0.55,3.37-1.63C628.44,156.77,627.54,156.77,625.74,156.79z M631.01,153.39c-1.61,0.01-2.78,0.15-3.5,0.41
				c-0.72,0.26-1.08,0.83-1.08,1.69c0,0.1,0,0.16,0,0.26c0.06,0.17,0.09,0.28,0.09,0.31C629.52,154.93,631.01,154.04,631.01,153.39z
				 M626.51,160.25c0,0.21,0.07,0.47,0.22,0.8c0.14,0.33,0.24,0.49,0.3,0.49c0.41,0,0.62-0.01,1.04-0.01
				c1.11-0.65,1.66-0.98,2.77-1.63c0-0.14,0-0.22,0-0.36C627.95,159.56,626.51,159.81,626.51,160.25z M629.97,157.63
				c-0.52,0-1.12,0.19-1.81,0.56c-0.69,0.37-1.07,0.74-1.12,1.12c0.86-0.01,1.5-0.03,1.9-0.07c0.4-0.04,0.82-0.15,1.25-0.35
				c0.43-0.19,0.65-0.5,0.65-0.91c0-0.07-0.13-0.15-0.39-0.23C630.19,157.68,630.03,157.63,629.97,157.63z M630.84,150.34
				c-1.11,0.01-1.66,0.01-2.76,0.01c-0.4,0-0.6,0.38-0.61,1.14c0,0.17,0,0.25,0,0.41c1.35-0.51,2.02-0.76,3.37-1.26
				C630.84,150.52,630.84,150.46,630.84,150.34z M630.84,151.27c-0.81,0-1.93,0.54-3.37,1.62c0.06,0,0.17,0,0.35,0
				c0.75,0,1.32-0.03,1.73-0.06c0.4-0.04,0.79-0.15,1.17-0.34c0.37-0.19,0.56-0.49,0.56-0.91c0-0.03-0.06-0.1-0.17-0.18
				C630.99,151.31,630.9,151.27,630.84,151.27z M630.84,154.73c-1.55,0.39-2.68,0.83-3.37,1.32c0.11,0,0.35,0.01,0.69,0.02
				c0.35,0.01,0.6,0.02,0.78,0.02c1.32-0.01,1.99-0.29,1.99-0.84C630.93,154.97,630.9,154.8,630.84,154.73z M643.53,169.68
				c-0.06,0.41,1.08,0.72,3.41,0.92c2.33,0.2,4.22,0.31,5.66,0.31c2.3,0,4.77-0.1,7.39-0.31c2.62-0.21,4.42-0.49,5.4-0.86
				c0-0.39,0-0.59,0-0.98c-4.78,0.85-8.33,1.28-10.63,1.28c-0.69,0-2.38-0.09-4.93-0.37c-0.8-0.09-3.5-0.56-8.08-1.34
				c-4.58-0.78-7.02-1.16-7.3-1.16c0.42-0.23,0.62-0.35,1.04-0.58c-0.17-0.24-0.38-0.36-0.6-0.36c-0.12,0-0.29,0.02-0.52,0.06
				c-0.23,0.04-0.4,0.06-0.52,0.06c0-0.41-0.01-0.7-0.04-0.85s-0.2-0.33-0.52-0.54c-0.32-0.2-0.82-0.3-1.51-0.3
				c0.52-0.18,0.89-0.49,1.12-0.94c-0.98,0.01-1.47-0.37-1.47-1.12c-0.69,0.01-1.04,0.01-1.73,0.02c0.23-0.11,0.53-0.2,0.91-0.29
				c0.37-0.09,0.66-0.18,0.86-0.27c0.2-0.09,0.3-0.18,0.3-0.29c0-0.41-0.17-0.83-0.52-1.24c-0.58,0.07-1.25,0.31-2.03,0.72
				c-0.78,0.4-1.17,0.76-1.17,1.07c0,0.1,0.19,0.48,0.56,1.13c0.37,0.65,0.59,0.98,0.65,0.98c0.4,0,0.92-0.15,1.56-0.43
				c-0.4,0.18-0.61,0.4-0.61,0.68c0,0.52,0.13,0.99,0.39,1.42c0.26,0.43,0.66,0.81,1.21,1.15c0.55,0.34,1.07,0.62,1.56,0.84
				c0.49,0.22,1.2,0.44,2.12,0.68c0.92,0.23,1.63,0.4,2.12,0.5c0.49,0.1,1.25,0.24,2.29,0.42c1.04,0.18,1.7,0.31,1.99,0.38
				c0.03,0,0.05,0,0.09,0C642.09,170.05,642.61,169.92,643.53,169.68z M632.66,147.02c-0.63,0-1.3,0.13-1.99,0.39
				c-0.69,0.26-1.04,0.55-1.04,0.86c0,0.03,0.03,0.09,0.09,0.15c0.06-0.03,0.26-0.1,0.6-0.18c0.35-0.09,0.62-0.17,0.82-0.24
				c0.2-0.07,0.43-0.16,0.69-0.26c0.26-0.1,0.46-0.22,0.6-0.34C632.59,147.29,632.66,147.16,632.66,147.02z M632.92,148.11
				c-0.69,0.11-1.58,0.52-2.68,1.25c0.11,0.07,0.37,0.1,0.78,0.1c0.57,0,1.05-0.12,1.43-0.34c0.37-0.23,0.56-0.51,0.56-0.85
				c0-0.02,0-0.03,0-0.05C632.97,148.17,632.95,148.15,632.92,148.11z M631.28,146.15c0,0.29,0,0.43,0,0.72
				c0.75-0.31,1.57-0.56,2.46-0.76c0.89-0.19,1.48-0.34,1.77-0.44c0.29-0.1,0.55-0.36,0.78-0.78c0.23-0.41,0.35-1.05,0.35-1.91
				C634.49,144.25,633.42,144.88,631.28,146.15z M640.52,141.59c-0.69,0-1.27,0.14-1.73,0.41c-0.46,0.28-0.69,0.64-0.69,1.08
				c0.57,0,1.12-0.16,1.64-0.49C640.26,142.27,640.52,141.93,640.52,141.59z M641.9,141.69c-0.59,0.52-0.88,0.77-1.47,1.29
				c1.04-0.62,1.55-1,1.55-1.14c0-0.02,0-0.03,0-0.05C641.96,141.75,641.94,141.73,641.9,141.69z M643.54,141.02
				c0.21,0.27,0.31,0.4,0.52,0.67c2.82-1.2,4.23-1.84,4.23-1.91c-0.38,0-0.57,0-0.95,0c-0.46,0-1.21,0.18-2.24,0.54
				C644.06,140.68,643.54,140.92,643.54,141.02z M648.64,140.71c-0.81,0-1.96,0.53-3.45,1.6c1.27-0.03,2.5-0.57,3.71-1.6
				C648.79,140.71,648.74,140.71,648.64,140.71z M649.33,139.47c0,0.28,0.4,0.6,1.21,0.98c0.62-0.39,0.93-0.59,1.55-0.98
				C650.98,139.47,650.43,139.47,649.33,139.47z M652.61,140.04c-0.52,0-1.07,0.33-1.64,0.98c0.1,0.02,0.16,0.03,0.26,0.05
				c0.17,0,0.29,0,0.35,0c0.63,0,1.18-0.33,1.64-0.98c-0.1-0.02-0.16-0.03-0.26-0.05C652.78,140.04,652.66,140.04,652.61,140.04z
				 M654.25,139.47c0,0.14,0,0.22,0,0.36c0.46,0,0.8-0.12,1.04-0.36C654.87,139.47,654.66,139.47,654.25,139.47z M656.84,139.47
				c-0.83,0.49-1.24,0.74-2.07,1.24c0.29,0.03,0.46,0.05,0.52,0.05c0.46,0,0.83-0.14,1.12-0.41
				C656.69,140.07,656.84,139.78,656.84,139.47z M659.86,139.37c-0.35,0-0.68,0.08-0.99,0.23c-0.32,0.15-0.56,0.29-0.73,0.41
				c-0.17,0.12-0.26,0.16-0.26,0.13C659.19,140.14,659.86,139.89,659.86,139.37z M660.89,139.73c-0.52,0-0.99,0.2-1.42,0.59
				c-0.43,0.4-0.65,0.73-0.65,1c0.63,0,1.15-0.15,1.55-0.46c0.4-0.31,0.66-0.67,0.78-1.08C661.05,139.76,661,139.75,660.89,139.73z
				 M662.62,140.46c-0.34,0.34-0.52,0.71-0.52,1.08c0.52,0,1.02-0.1,1.51-0.31c0.49-0.21,0.73-0.46,0.73-0.77
				c0-0.31-0.19-0.56-0.56-0.75c-0.37-0.19-0.82-0.28-1.34-0.28c-0.17,0-0.36,0.13-0.56,0.39c-0.2,0.26-0.3,0.47-0.3,0.64
				C662,140.45,662.21,140.46,662.62,140.46z M664.86,141.85c0,0.34,0.37,0.52,1.12,0.52c0-0.66,0-0.99,0-1.65
				C665.24,140.99,664.86,141.37,664.86,141.85z"/>
			<path class="st26" d="M688.75,172.26c-3.22-0.98-4.83-1.46-8.04-2.42c-0.17,0-0.26,0-0.43-0.01c-0.35-0.01-1.62-0.57-3.81-1.67
				c-1.38-0.68-2.81-2.24-4.28-4.67c-1.47-2.43-2.21-4.33-2.21-5.71c0-0.24,0.03-0.41,0.09-0.52c-0.12,0-0.23-0.05-0.35-0.16
				c-0.12-0.1-0.17-0.19-0.17-0.26c0-0.45,0.16-1.17,0.47-2.17c0.31-1,0.5-1.63,0.56-1.91c0.63-3.41,1.98-6.09,4.05-8.06
				c2.07-1.96,5.52-3.85,10.35-5.69c0.03,0,0.05,0,0.09,0c0.07,0.02,0.1,0.03,0.17,0.05c0.46,0,2.16-0.21,5.09-0.65
				c2.93-0.43,4.83-0.65,5.69-0.65c0.9,0,1.35,0,2.24,0c1.07,0.13,1.61,0.19,2.68,0.32c1.78,0.21,3.7,0.45,5.74,0.72
				c2.04,0.27,3.29,0.46,3.76,0.57c1.9,0.5,2.99,0.85,3.28,1.02c4.32,2.73,7.28,5.1,8.87,7.07c1.59,1.97,2.39,4.59,2.4,7.85
				c0,1.16-0.12,2.29-0.38,3.38c-0.26,1.1-0.65,2.43-1.2,4c-0.54,1.57-0.93,2.6-1.07,3.05c-0.13,0.4-0.49,0.87-1.12,1.34
				c-0.63,0.46-0.95,0.98-0.95,1.55c0,0.22-0.03,0.34-0.09,0.37c-2.98,3.22-10.09,4.54-21.33,4.17
				C694.82,172.8,692.8,172.62,688.75,172.26z M674.46,156.06c-1.55,0.02-2.33,0.55-2.33,1.59c0.75,0.01,1.32-0.14,1.73-0.45
				C674.26,156.89,674.46,156.51,674.46,156.06z M672.9,152.06c0,0.79-0.23,1.34-0.69,1.65c0.06,0,0.14,0.01,0.26,0.03
				c0.11,0.02,0.2,0.03,0.26,0.03c0.4,0,0.88-0.07,1.42-0.22c0.55-0.15,0.82-0.36,0.82-0.64c0-0.21-0.26-0.4-0.78-0.58
				C673.68,152.16,673.25,152.07,672.9,152.06z M675.33,157.89c-0.58-0.01-1.27,0.4-2.07,1.22c0.17,0,0.26,0,0.43,0
				c0.35,0.04,0.55,0.06,0.6,0.06c1.09,0.01,1.64-0.19,1.64-0.61C675.94,158.12,675.73,157.89,675.33,157.89z M674.89,148.29
				c-0.52,0-0.78,0.34-0.78,1.03c0.92,0.01,1.7-0.11,2.33-0.35c-0.12-0.14-0.38-0.29-0.78-0.45
				C675.26,148.37,675,148.29,674.89,148.29z M674.29,150.88c0.41,0.13,0.62,0.19,1.04,0.32c0.46,0,0.69-0.24,0.69-0.72
				C675.03,150.47,674.46,150.61,674.29,150.88z M674.3,163.68c0.4,0.14,0.61,0.35,0.61,0.63c0.41-0.24,0.62-0.37,1.04-0.61
				c0-0.07-0.09-0.15-0.26-0.24c-0.17-0.09-0.29-0.13-0.35-0.13C675.05,163.32,674.7,163.44,674.3,163.68z M677.06,161.43
				c-0.52-0.01-0.89,0.09-1.12,0.3c0.45,0.01,0.67,0.01,1.12,0.01C677.06,161.62,677.06,161.56,677.06,161.43z M677.47,145.14
				c-0.23,0-0.47,0.13-0.73,0.39c-0.26,0.26-0.39,0.46-0.39,0.59c0.86,0,1.78-0.11,2.76-0.35c-0.06-0.1-0.32-0.24-0.78-0.39
				C677.87,145.22,677.59,145.14,677.47,145.14z M678.02,163.99c-0.81,0.06-1.21,0.29-1.21,0.71c0.86,0.01,1.3-0.15,1.3-0.5
				c0-0.03-0.02-0.07-0.04-0.1C678.03,164.06,678.02,164.02,678.02,163.99z M677.42,165.95c0,0.21,0.26,0.54,0.78,1
				c0.52,0.46,0.89,0.69,1.13,0.69c0.63,0.01,0.95-0.54,0.95-1.65C679.13,165.97,678.56,165.97,677.42,165.95z M685.2,167.12
				c0.63,0.01,1.05,0.07,1.25,0.18c0.2,0.11,0.42,0.27,0.65,0.48c0.23,0.21,0.59,0.43,1.04,0.6c0.66,0.24,1.76,0.4,3.2,0.52
				c1.44,0.12,2.51,0.32,3.2,0.58c0.23,0.01,0.83,0.03,1.81,0.08c0.98,0.05,1.53,0.07,1.64,0.07c5.36,0.15,9.27-0.16,11.75-0.98
				c2.47-0.82,4.34-2.63,5.6-5.45c0-0.21,0.01-0.89,0.04-2.04c0.03-1.14,0.04-1.82,0.04-2.04c0-1.61-0.01-2.63-0.01-3.06
				c0-0.43-0.09-1.4-0.27-2.93c-0.18-1.52-0.45-2.65-0.83-3.39c-0.38-0.74-0.97-1.61-1.78-2.62c-0.81-1.01-1.82-1.83-3.03-2.48
				c-0.06,0.04-0.17,0.05-0.35,0.05c-0.23,0-1.76-0.31-4.58-0.91c-2.82-0.6-4.4-0.9-4.75-0.9c-0.52,0-1.22,0.12-2.11,0.36
				c-0.89,0.24-1.57,0.36-2.03,0.36c-0.35,0-0.68-0.07-0.99-0.19c-0.32-0.12-0.62-0.19-0.91-0.19c-4.37-0.02-8.18,1.24-11.43,3.75
				c-3.25,2.51-4.87,5.08-4.87,7.71c0,0.83,0.39,2.65,1.17,5.46c0.78,2.81,1.52,4.23,2.21,4.24c0.06,0,0.23,0,0.52-0.02
				c0.29-0.01,0.49-0.02,0.6-0.02c0.23,0,0.43,0.12,0.61,0.35c0.17,0.23,0.26,0.45,0.26,0.65c0.11,0.14,0.36,0.35,0.74,0.64
				c0.37,0.28,0.74,0.53,1.08,0.75C685.02,166.96,685.2,167.09,685.2,167.12z M679.11,144.16c0.23,0.14,0.55,0.29,0.95,0.45
				c0.4,0.16,0.76,0.28,1.08,0.37c0.32,0.09,0.51,0.17,0.56,0.18c0.12,0.03,0.4-0.09,0.69-0.28c0.29-0.19,0.43-0.32,0.43-0.39
				C681.73,144.28,680.49,144.17,679.11,144.16z M713.73,144.69c0,0.29,0.13,0.58,0.39,0.89c0.26,0.31,0.59,0.46,0.99,0.47
				c0.46,0,0.88-0.1,1.25-0.31c0.37-0.21,0.56-0.44,0.56-0.69c0-0.39-0.55-0.6-1.64-0.6c-2.42-1.59-4.15-2.7-5.19-3.35
				c-0.92-0.57-3.1-1-6.52-1.3c-3.42-0.29-6.29-0.44-8.59-0.44c-2.42,0-3.62,0.33-3.62,0.99c-0.4-0.42-0.84-0.63-1.3-0.63
				c-0.17,0-0.76,0.16-1.77,0.47c-1.01,0.31-1.98,0.61-2.93,0.91c-0.95,0.29-1.42,0.46-1.42,0.49c0.41,0.21,0.62,0.31,1.04,0.52
				c-1.31,0-1.97-0.01-3.28-0.01c0,0.04,0,0.06,0,0.1c0.4,0.9,1.38,1.36,2.94,1.36c0.81,0,1.47-0.22,1.98-0.67
				c-0.17-0.03-0.4-0.13-0.69-0.29c-0.29-0.16-0.43-0.27-0.43-0.34c0-0.24,0.17-0.47,0.52-0.68c0.34,0,0.72,0.07,1.12,0.21
				c0.4,0.14,0.89,0.21,1.47,0.21c0.63,0,1.09-0.01,1.38-0.05c0.29-0.03,0.6-0.15,0.95-0.36c0.34-0.21,0.66-0.52,0.95-0.94
				c0.06,0.28,0.49,0.42,1.3,0.42c3.05,0.01,4.57-0.34,4.57-1.04c0.21,0.25,0.31,0.38,0.52,0.63c-0.03,0.02-0.05,0.03-0.09,0.05
				c0.34,0,0.98-0.14,1.9-0.42c1.15,0.95,2.68,1.44,4.58,1.44c0.81,0,1.32-0.14,1.55-0.42C706.9,142.51,709.41,143.62,713.73,144.69
				z M681.74,167.89c0,0.17,0,0.25,0,0.42c0.58,0.01,0.95-0.12,1.12-0.4C682.41,167.9,682.19,167.9,681.74,167.89z M688.75,170.33
				c0,0.04,0.09,0.1,0.26,0.19c0.17,0.09,0.29,0.14,0.35,0.14c1.21,0.03,1.81-0.2,1.81-0.69c-0.21-0.01-0.31-0.01-0.52-0.01
				C689.49,169.93,688.86,170.05,688.75,170.33z M701.02,171.36c0,0.25,0,0.38,0,0.63c0.83-0.23,1.24-0.34,2.07-0.57
				C702.26,171.4,701.85,171.38,701.02,171.36z M718.03,167.31c-1.33-0.01-2.15,0.02-2.46,0.1c-0.32,0.08-0.56,0.3-0.73,0.67
				c-0.17,0.37-0.52,0.72-1.03,1.06c-1.44,0.95-3.77,1.62-6.99,2.04c3.51,0.12,6.72-0.58,9.63-2.15c2.9-1.57,4.35-3.48,4.34-5.71
				c-2.25-0.07-3.37,0.46-3.36,1.61c0.69,0.02,1.04,0.04,1.73,0.06c-0.17,0.17-0.66,0.33-1.47,0.46c-0.81,0.13-1.24,0.36-1.29,0.68
				C716.38,166.2,716.93,166.59,718.03,167.31z M716.85,150.03c0.06,0.04,0.17,0.11,0.35,0.22c0.1,0.04,0.16,0.07,0.26,0.11
				c1.73,0.03,2.59,0.04,4.32,0.07c0-0.76-0.38-1.74-1.13-2.93c-0.75-1.2-1.7-1.8-2.85-1.81c-0.35,0-0.85,0.23-1.51,0.71
				c-0.66,0.48-0.99,0.79-0.99,0.93c0,0.11,0.2,0.26,0.61,0.46c0.4,0.2,0.66,0.3,0.78,0.31c0.11,0,0.2-0.01,0.26-0.05
				c-0.4,0.42-0.6,0.8-0.6,1.12c0.35,0,0.75-0.1,1.21-0.31c0.46-0.21,0.89-0.31,1.29-0.3c-0.17,0.13-0.26,0.19-0.43,0.32
				c-0.34,0.18-0.69,0.39-1.03,0.63C717.02,149.75,716.85,149.93,716.85,150.03z M716.42,151.37c0.41,0.14,0.62,0.2,1.04,0.34
				c0.46,0.01,1.35-0.21,2.67-0.65C717.95,151.02,716.71,151.13,716.42,151.37z M721.18,153.56c-1.52-0.03-2.28-0.05-3.8-0.08
				c0,0.82,0.29,1.24,0.87,1.25c0.75,0.02,1.7-0.18,2.85-0.58c1.15-0.41,1.72-0.86,1.72-1.37c0-0.68-0.18-1.25-0.52-1.69
				c-1.38-0.02-3.16,0.5-5.35,1.57C718.64,153.02,719.49,153.2,721.18,153.56z M718.62,161.69c0,0.11-0.12,0.27-0.34,0.5
				c-0.23,0.23-0.34,0.41-0.34,0.55c0.98,0.03,1.52-0.09,1.64-0.38c0,0.04,0.09,0.1,0.26,0.2c0.17,0.1,0.29,0.14,0.35,0.15
				c1.84,0.06,2.76-1.51,2.75-4.73c0-0.07-0.01-0.22-0.04-0.43c-0.03-0.22-0.04-0.34-0.04-0.38c-2.28,0.27-3.42,0.4-5.7,0.66
				c0.8,0.49,1.19,0.74,1.99,1.24c-0.29-0.01-0.65,0.04-1.08,0.13c-0.43,0.1-0.65,0.2-0.65,0.3c0,0.29,0.4,0.44,1.21,0.46
				c0.23,0.01,0.63-0.03,1.21-0.1c0.57-0.07,1.04-0.11,1.38-0.1c-0.17,0.21-0.76,0.37-1.77,0.49c-1.01,0.11-1.51,0.35-1.51,0.71
				c0,0.18,0.12,0.33,0.35,0.47C718.5,161.57,718.62,161.65,718.62,161.69z M717.99,155.97c0.4,0.3,1.04,0.45,1.9,0.48
				c0.35,0.01,0.52,0.01,0.86,0.02c1.73,0.04,2.59-0.15,2.59-0.59c0-0.94-0.24-1.41-0.7-1.42c-0.63-0.01-1.47,0.16-2.5,0.51
				C719.11,155.32,718.39,155.65,717.99,155.97z"/>
			<path class="st26" d="M730.22,173.38c-0.06-0.04-0.14-0.21-0.26-0.51c-0.1-0.2-0.16-0.3-0.26-0.5c1.42-4.15,2.13-7.67,2.12-10.52
				c0-0.18-0.02-0.49-0.05-0.93c-0.03-0.44-0.05-0.75-0.05-0.93c1.3-4.84,1.94-7.28,3.24-12.16c0-1.39,0.33-3.41,1.01-6.05
				c0-0.07,0.01-0.3,0.04-0.69c0.03-0.38,0.07-0.75,0.13-1.1c0.06-0.35,0.16-0.72,0.3-1.1c0.14-0.39,0.37-0.69,0.69-0.91
				c0.31-0.22,0.7-0.33,1.16-0.33c0.35,0.07,0.52,0.1,0.86,0.17c0.52,0.15,0.89,0.22,1.12,0.22c0.28-0.09,0.41-0.13,0.69-0.22
				c0.46-0.11,0.72-0.17,0.78-0.17c1.32,0.26,4.12,2.9,8.4,8.1c4.28,5.2,7.02,8.23,8.23,8.91c0.69-0.32,1.36-0.85,2.02-1.6
				c0.66-0.75,1.3-1.58,1.93-2.51c0.63-0.93,1.09-1.54,1.37-1.84c0.11-0.15,0.74-0.8,1.89-1.96c1.15-1.16,1.75-1.78,1.81-1.86
				c1.89-2.11,3.49-4.26,4.81-6.46c0.46-0.74,1.78-1.12,3.97-1.12c0.86,0,1.74,0.15,2.63,0.45c0.89,0.3,1.34,0.79,1.34,1.47
				c0,0.04-0.01,0.11-0.04,0.21c-0.03,0.1-0.04,0.19-0.04,0.27c0,0.04,0.01,0.12,0.04,0.24c0.03,0.12,0.04,0.22,0.04,0.3
				c0.35,2.27,1.23,6.11,2.62,11.56c1.4,5.46,2.3,10.97,2.72,16.48c0.06,0.69,0.28,1.85,0.66,3.5c0.38,1.64,0.57,2.89,0.57,3.74
				c0,0.61-0.05,1.07-0.17,1.38c-0.11,0.31-0.39,0.51-0.82,0.59c-0.43,0.08-0.78,0.12-1.03,0.12c-0.26,0-0.79-0.04-1.59-0.11
				c-3.68-0.32-5.52-0.93-5.52-1.84c0.2-0.93,0.31-1.4,0.51-2.34c-0.35-2.25-0.53-4.95-0.54-8.13c0-0.51-0.18-1.57-0.53-3.15
				c-0.35-1.58-0.7-3.04-1.05-4.38c-0.35-1.34-0.55-2.03-0.61-2.07c-0.21-0.15-0.31-0.22-0.52-0.37c-0.02-4.61-0.37-6.93-1.06-6.94
				c-0.45-0.01-0.67-0.02-1.12-0.03c0,0.57,0,0.85,0,1.41c0,0.08-0.59,1.01-1.76,2.77c-1.17,1.76-2.53,3.78-4.08,6.05
				c-1.55,2.26-2.78,4-3.69,5.22c-0.12,0.11-0.3,0.37-0.56,0.78c-0.26,0.41-0.47,0.74-0.64,0.98c-0.17,0.24-0.45,0.47-0.82,0.68
				c-0.37,0.21-0.79,0.3-1.25,0.28c-2.59-0.14-3.94-1.05-4.07-2.72c-6.18-7.1-10.11-12.12-11.79-15.38c-0.06,0-0.26-0.12-0.61-0.35
				c-0.11,0.59-0.45,1.85-1.02,3.77c0,0.97-0.28,2.58-0.85,4.82c-0.57,2.24-0.85,3.9-0.85,4.97c0,0.52,0.03,0.91,0.09,1.17
				c-1.05,4.62-1.58,6.92-2.64,11.51c-0.11,0.51-0.89,0.72-2.33,0.64C733.83,174.72,731.95,174.24,730.22,173.38z M732.9,171.88
				c0,0.66,0.72,1.02,2.16,1.1c0.75,0.04,1.12-0.53,1.12-1.7c0-0.18-0.02-0.42-0.05-0.72c-0.03-0.29-0.05-0.48-0.05-0.55
				c-0.38-0.02-0.57-0.03-0.95-0.05c-0.04-0.13-0.05-0.2-0.09-0.33c0.23-0.43,0.37-0.66,0.43-0.7
				C733.75,168.84,732.89,169.83,732.9,171.88z M736.06,162.5c0,0.11-0.14,0.3-0.43,0.56c-0.29,0.26-0.49,0.39-0.6,0.39
				c2.13,0.08,3.19-0.72,3.19-2.42c0-0.96-0.26-1.55-0.78-1.77c-0.52-0.22-1.73-0.36-3.63-0.42c0,0.7,0.21,1.56,0.61,2.6
				c0,0.04,0.26,0.2,0.78,0.5C735.71,162.24,736,162.43,736.06,162.5z M733.83,168.24c1.21,0.06,2.08-0.22,2.63-0.84
				c0.54-0.62,0.82-1.33,0.81-2.14c0-0.07-0.02-0.25-0.05-0.53c-0.03-0.28-0.04-0.43-0.04-0.47c-0.45,0.11-0.67,0.17-1.12,0.28
				c0-0.18,0-0.26,0-0.44c-1.04-0.04-1.67,0.25-1.9,0.86C733.94,165.57,733.83,166.67,733.83,168.24z M737.16,156.8
				c-1.44-0.04-2.16,0.03-2.16,0.21c0,0.29,0,0.43,0,0.72c0.17,0.01,0.69-0.09,1.55-0.28c0.86-0.19,1.38-0.31,1.55-0.34
				C737.99,156.92,737.68,156.82,737.16,156.8z M735.43,154.33c0,0.29,0,0.43,0,0.72c0.75,0.02,1.47-0.09,2.16-0.33
				c-0.06-0.26-0.38-0.4-0.95-0.41c-0.06,0-0.23,0-0.52,0.01C735.83,154.33,735.6,154.33,735.43,154.33z M735.43,156.04
				c1.31,0.15,1.97,0.22,3.28,0.37c0.4,0.01,0.6-0.2,0.6-0.65c0-0.33-0.2-0.56-0.61-0.68C736.87,155.32,735.78,155.64,735.43,156.04
				z M738.11,157.83c-1.61-0.05-2.42,0.24-2.41,0.86c2.01,0.07,3.02-0.16,3.02-0.68C738.72,157.9,738.52,157.84,738.11,157.83z
				 M736.03,153.35c0.06,0.22,0.46,0.34,1.21,0.36c1.73,0.04,2.59-0.16,2.59-0.6c0-0.04-0.06-0.17-0.17-0.39
				c-1.24-0.45-1.87-0.68-3.11-1.12c-0.21,0.35-0.31,0.52-0.52,0.87c0.62,0.01,0.93,0.02,1.55,0.04
				C737.41,152.87,736.89,153.15,736.03,153.35z M736.97,150.56c0,0.77,1.01,1.18,3.03,1.23c0-0.92-0.21-1.59-0.61-1.98
				c-0.4-0.4-1.24-0.61-2.51-0.63c0,0.37,0.4,0.63,1.21,0.8C737.34,149.96,736.96,150.15,736.97,150.56z M737.56,148.19
				c0.11,0.04,0.42,0.18,0.91,0.43c0.49,0.25,0.79,0.37,0.91,0.38c1.21,0.02,1.81-0.63,1.81-1.97c-0.86-0.01-1.58-0.12-2.16-0.31
				c-0.58-0.19-1.07-0.29-1.47-0.3C737.56,147.13,737.56,147.49,737.56,148.19z M740.74,143.53c0,0.04,0.13,0.12,0.39,0.25
				c0.26,0.13,0.39,0.24,0.39,0.31c0,0.07-0.03,0.13-0.09,0.17c0.4,0,1.02-0.15,1.85-0.45c0.83-0.31,1.25-0.57,1.25-0.8
				c0-0.26-0.29-0.48-0.87-0.65c-0.58-0.17-1.09-0.26-1.55-0.26c-0.81-0.01-1.7,0.12-2.67,0.37c-0.98,0.25-1.47,0.62-1.46,1.09
				c0.4,0,0.99-0.1,1.77-0.32c0.78-0.21,1.31-0.34,1.6-0.37c-0.06,0-0.17,0.09-0.34,0.27C740.83,143.33,740.74,143.45,740.74,143.53
				z M738.05,139.41c0,0.69,0,1.03,0.01,1.71c0.11,0,0.43-0.06,0.95-0.19c0.52-0.13,0.95-0.19,1.29-0.19
				c0.06,0.3,0.78,0.45,2.16,0.46c0-0.52-0.38-0.78-1.12-0.79c0-0.29,0-0.43,0-0.72C740.93,139.51,739.83,139.42,738.05,139.41z
				 M739.19,145.9c0.06,0.22,0.35,0.34,0.86,0.34c0.52,0.01,0.85,0.01,0.99,0.01c0.14,0,0.36-0.03,0.65-0.1
				c0.29-0.07,0.52-0.18,0.69-0.32c0.17-0.15,0.34-0.35,0.52-0.61C742.27,145.21,741.03,145.44,739.19,145.9z M746.09,144.93
				c-1.26,0.58-2.15,1.03-2.67,1.36c0.31,0,0.47,0.01,0.78,0.01c2.01,0.03,3.02-0.14,3.02-0.52
				C747.22,145.71,746.84,145.42,746.09,144.93z M744.03,147.3c0.52,0.19,0.78,0.28,1.3,0.47c0.11,0,0.57-0.25,1.38-0.76
				c-0.06,0-0.26,0-0.6-0.01c-0.21-0.03-0.31-0.04-0.52-0.06C744.61,146.92,744.09,147.04,744.03,147.3z M749.39,148.41
				c-1.21,0.5-1.81,0.98-1.81,1.43c1.09,0.02,2.01-0.09,2.76-0.34C750.11,149.04,749.79,148.68,749.39,148.41z M748.79,150.54
				c0,0.16,0,0.24,0,0.39c0.17,0,0.43-0.05,0.78-0.18c0.34-0.12,0.6-0.18,0.78-0.18C749.72,150.56,749.41,150.55,748.79,150.54z
				 M749.75,152.25c0,0.49,0.2,0.74,0.61,0.75c1.21,0.03,1.81-0.2,1.81-0.69C751.2,152.29,750.71,152.27,749.75,152.25z
				 M751.98,150.84c-1.15-0.03-1.73,0.22-1.72,0.75c0.69,0.02,1.04,0.03,1.73,0.04C751.99,151.31,751.99,151.15,751.98,150.84z
				 M753.11,153.07c-0.63-0.02-1.19,0.07-1.68,0.26c-0.49,0.19-0.73,0.46-0.73,0.8c1.73,0.05,2.85-0.2,3.36-0.75
				C753.95,153.19,753.63,153.09,753.11,153.07z M750.88,154.76c-0.03,0.04-0.05,0.07-0.09,0.11c0,0.05,0,0.07,0,0.11
				c0,0.38,0.49,0.58,1.47,0.61c1.38,0.04,2.16-0.19,2.33-0.72C753.1,154.83,752.36,154.81,750.88,154.76z M756.15,156.3
				c0-0.08-0.16-0.22-0.48-0.42c-0.32-0.2-0.58-0.34-0.73-0.37c-0.15-0.02-0.47,0.13-0.9,0.4c-0.43,0.27-0.73,0.5-0.9,0.68
				c0.06,0,0.23,0.03,0.52,0.07c0.17,0.01,0.26,0.01,0.43,0.01C755.11,156.72,755.8,156.59,756.15,156.3z M754.08,157.36
				c0,0.32,0,0.48,0,0.8c1.15,0.04,1.84-0.2,2.07-0.72C755.32,157.41,754.91,157.39,754.08,157.36z M759.95,159.3
				c-2.24,0.75-3.36,1.44-3.36,2.09c2.3,0.1,4.15-0.21,5.56-0.96c1.41-0.75,2.11-1.89,2.1-3.44c-0.58,0.17-1.12,0.25-1.64,0.23
				c0.11,0,0.33-0.07,0.65-0.24c0.32-0.16,0.47-0.3,0.47-0.42c0-0.08-0.1-0.24-0.3-0.47c-0.2-0.24-0.3-0.43-0.3-0.59
				c0.73,0.16,1.09,0.25,1.81,0.41c0.69,0.02,1.03-0.45,1.03-1.41c-0.69-0.02-1.04-0.03-1.73-0.06c0.06-0.04,0.31-0.18,0.78-0.44
				c0.46-0.26,0.8-0.46,1.03-0.61c0.23-0.15,0.57-0.38,1.03-0.7c0.46-0.32,0.8-0.59,1.03-0.81c0.23-0.23,0.44-0.49,0.64-0.8
				c0.2-0.31,0.3-0.6,0.3-0.87c-1.21-0.03-2.32,0.16-3.32,0.55c-1.01,0.4-1.51,0.96-1.5,1.7c0,0.15,0.35,0.36,1.04,0.61
				c-0.63,0.06-1.25,0.27-1.85,0.64c-0.6,0.37-1.05,0.69-1.33,0.97c-0.29,0.28-0.7,0.74-1.25,1.37c-0.55,0.63-0.85,0.99-0.9,1.06
				c0.45,0.2,0.67,0.3,1.12,0.5c-0.4,0.21-1.42,0.34-3.06,0.37c-1.64,0.03-2.57,0.29-2.8,0.78c0.24,0.15,0.36,0.22,0.61,0.37
				c0.06-0.04,0.27-0.06,0.65-0.09c0.37-0.02,0.78-0.05,1.21-0.09c0.43-0.04,0.68-0.06,0.73-0.06c0.11,0,0.37,0.02,0.78,0.06
				c0.4,0.04,0.66,0.06,0.78,0.06C759.95,159.13,759.95,159.19,759.95,159.3z M757.02,159.47c-0.86-0.04-1.29,0.16-1.29,0.57
				c0.03,0.05,0.05,0.07,0.09,0.12C756.62,160.19,757.02,159.96,757.02,159.47z M758.93,161.78c-0.23-0.01-0.49,0.03-0.78,0.11
				c-0.29,0.08-0.43,0.16-0.43,0.24c0.03,0.02,0.05,0.04,0.09,0.06c0.06,0.08,0.09,0.16,0.09,0.23c0.17,0.01,0.4-0.07,0.69-0.23
				c0.29-0.16,0.43-0.26,0.43-0.3C758.98,161.85,758.96,161.83,758.93,161.78z M760.22,162.47c-0.98,0.22-1.46,0.62-1.46,1.19
				c0.17,0.01,0.34-0.01,0.52-0.06c0.17-0.05,0.33-0.12,0.47-0.21c0.14-0.09,0.26-0.17,0.34-0.24c0.09-0.07,0.19-0.18,0.3-0.33
				c0.11-0.15,0.17-0.24,0.17-0.28C760.43,162.52,760.36,162.5,760.22,162.47z M767.94,148.45c-0.48-0.04-0.92,0.16-1.21,0.5
				c-0.29,0.34-0.43,0.71-0.43,1.09c0.69,0.02,1.78-0.23,3.28-0.74C769.06,148.82,768.48,148.5,767.94,148.45z M773.8,146.81
				c0.35,0.16,0.62,0.36,0.82,0.58c0.2,0.22,0.33,0.42,0.39,0.6c0.06,0.18,0.22,0.34,0.48,0.48c0.26,0.14,0.65,0.22,1.17,0.24
				c1.67,0.04,2.5-0.06,2.5-0.3c0-0.28-0.17-0.66-0.52-1.14c-0.46-3.09-0.69-4.62-1.15-7.7c-0.21-0.02-0.31-0.04-0.52-0.06
				c-1.5-0.01-2.93,0.6-4.31,1.81c0.17,0.35,0.79,0.6,1.86,0.72c1.06,0.13,1.71,0.25,1.94,0.38c-0.34,0.39-1.11,0.72-2.28,0.98
				c-1.18,0.26-1.83,0.59-1.94,0.98c1.69,0.02,2.54,0.04,4.23,0.06c0.21,0.24,0.31,0.36,0.52,0.6c-0.34,0.11-1.29,0.26-2.85,0.43
				c-1.55,0.17-2.9,0.4-4.05,0.69c-1.15,0.29-1.72,0.65-1.72,1.08c0,0.02,0,0.04,0,0.06c0.03,0.05,0.05,0.07,0.09,0.12
				c0.83-0.12,1.24-0.19,2.07-0.31c-0.14-0.14-0.21-0.22-0.35-0.36c1.38-0.21,2.59-0.3,3.62-0.28c0.21,0,0.31,0.01,0.52,0.01
				C774.11,146.6,774.01,146.67,773.8,146.81z M768.89,148.18c0.23,0.24,0.66,0.37,1.3,0.38c0.46,0.01,0.95-0.1,1.47-0.32
				c0-0.08-0.07-0.17-0.22-0.27c-0.14-0.1-0.25-0.15-0.3-0.15C770.67,147.8,769.92,147.93,768.89,148.18z M771.12,144.88
				c-0.58-0.01-0.89,0.12-0.95,0.4c1,0.02,1.5,0.02,2.5,0.04C772.27,145.03,771.75,144.89,771.12,144.88z M772.66,142.37
				c-0.69-0.01-1.03,0.26-1.03,0.81c0.98,0.01,1.7-0.14,2.16-0.45C773.67,142.5,773.3,142.38,772.66,142.37z M776.99,145.74
				c0,0.14,0,0.21,0,0.36c-0.66-0.01-0.98-0.02-1.64-0.03C776.01,145.94,776.33,145.87,776.99,145.74z M775.79,149.4
				c0,0.2,0.17,0.43,0.52,0.7c0.35,0.27,0.63,0.4,0.86,0.41c0.75,0.02,1.41-0.2,1.98-0.66C777.43,149.55,776.31,149.41,775.79,149.4
				z M777.44,151.46c0,0.08,0.03,0.12,0.09,0.12c0.83,0.22,1.24,0.32,2.07,0.54c0-0.5,0-0.75,0-1.25
				C778.16,150.82,777.44,151.02,777.44,151.46z M777.53,152.71c0.21,0.15,0.31,0.22,0.52,0.37c0.46-0.14,0.69-0.39,0.69-0.75
				C778.28,152.32,777.87,152.44,777.53,152.71z M777.97,154.15c0,0.64,0.75,0.98,2.25,1.04c0-0.81,0-1.22-0.01-2.03
				c-0.52-0.02-1.02,0.07-1.51,0.25C778.21,153.59,777.97,153.84,777.97,154.15z M778.66,155.73c0,0.45,0,0.68,0,1.13
				c1.44-0.1,2.16-0.25,2.16-0.45c0-0.44-0.55-0.68-1.64-0.72C778.97,155.7,778.87,155.71,778.66,155.73z M779.19,158.37
				c0.4,0.22,1.09,0.35,2.07,0.39c0.52,0.02,0.77-0.48,0.77-1.53c-1.96-0.08-2.93,0.21-2.93,0.89c0,0.05,0,0.07,0,0.12
				C779.14,158.3,779.15,158.32,779.19,158.37z M779.62,159.05c0,0.48,0,0.72,0,1.19c0.98,0.05,1.72-0.17,2.24-0.67
				c-0.06,0-0.38-0.09-0.95-0.26C780.34,159.15,779.91,159.06,779.62,159.05z M779.63,161.38c0,0.88,0.75,1.35,2.25,1.44
				c0-0.89,0-1.33-0.01-2.22C781.23,160.56,780.49,160.83,779.63,161.38z M780.24,163.08c0,0.19,0,0.29,0,0.48
				c0.52,0.03,0.86-0.11,1.03-0.42C780.86,163.12,780.65,163.11,780.24,163.08z M780.24,165.18c0,0.44,0.72,0.7,2.16,0.79
				c0-0.91,0-1.37-0.01-2.28C780.96,163.92,780.24,164.42,780.24,165.18z M782.92,167.68c-0.58-0.04-1.12,0.09-1.64,0.37
				c-0.52,0.29-0.77,0.63-0.77,1.03c0.97,0.07,1.45,0.1,2.42,0.17C782.93,168.62,782.93,168.31,782.92,167.68z M780.85,166.53
				c0,0.43,0,0.65,0,1.08c0.62-0.39,0.93-0.59,1.55-0.98C781.78,166.59,781.47,166.57,780.85,166.53z M780.86,169.88
				c0,0.17,0,0.25,0,0.42c0.86,0.06,1.38-0.04,1.55-0.31C781.79,169.95,781.48,169.93,780.86,169.88z M781.51,170.89
				c-0.43,0.17-0.65,0.37-0.64,0.61c0,0.24,0.18,0.95,0.52,2.14c0.35,1.19,0.52,1.8,0.52,1.84c0.86-0.01,1.44-0.07,1.72-0.19
				c0.29-0.12,0.43-0.36,0.43-0.72c0-0.68-0.12-1.5-0.35-2.44c-0.23-0.94-0.58-1.43-1.04-1.46
				C782.33,170.65,781.94,170.72,781.51,170.89z"/>
			<path class="st26" d="M815.31,155.87c0.46,0.37,0.75,0.55,0.86,0.56c0.46,0.02,0.69-0.18,0.69-0.62
				c3.86,0.18,5.79,0.27,9.65,0.46c0.46,0.51,0.8,1,1.03,1.46c0.41-0.14,0.62-0.21,1.03-0.35c-0.34,0.25-0.52,0.82-0.52,1.72
				c0,1.65,0.03,2.59,0.09,2.82c-0.45,0.27-0.67,0.4-1.12,0.66c-3.96-0.26-10.71-0.52-20.25-0.74c-0.06,0-0.19-0.02-0.39-0.05
				c-0.2-0.03-0.36-0.05-0.47-0.06c-0.46-0.03-0.69,0.09-0.69,0.34c0.01,4.71,0.01,7.06,0.02,11.77c0.24,0.3,0.36,0.45,0.6,0.75
				c0.06,0.09,1.13,0.28,3.23,0.58c2.1,0.3,3.92,0.53,5.47,0.68c0.69,0.07,2.08,0.01,4.17-0.18c2.09-0.19,3.6-0.24,4.52-0.15
				c2.52,0.25,3.96,0.53,4.3,0.83c0.24,0.16,0.36,0.24,0.6,0.4c0.06-0.26,0.37-0.36,0.95-0.31c0.06,0.01,0.2,0.03,0.43,0.08
				c0.23,0.05,0.46,0.08,0.69,0.1c-0.38,0.1-0.57,0.14-0.95,0.24c0.1-0.02,0.16-0.02,0.26-0.04c0.11,0.01,0.26,0.03,0.43,0.04
				s0.34,0.04,0.52,0.05c0.97,0.1,1.55,0.3,1.72,0.59c0,0.05,0.03,0.09,0.09,0.14c0.06,0.01,0.24-0.05,0.56-0.18
				c0.31-0.12,0.5-0.18,0.56-0.18c0.8,0.49,1.2,1.26,1.2,2.31c0,2.64-0.4,4.25-1.2,4.83c-0.12-0.01-0.52-0.05-1.2-0.12
				c-0.69-0.06-1.06-0.1-1.12-0.1c-2.58-0.32-4.82-0.95-6.71-1.88c-8.88-1.03-13.32-1.51-22.21-2.41c-2.47-0.25-4.15-0.96-4.31-1.74
				c-0.21-0.97,0.08-3.12,0.24-5.64c0.17-2.52,0.25-4.4,0.24-5.65c-0.01-5.81-0.4-9.88-1.15-12.19c-0.02-6.58-0.02-9.88-0.04-16.46
				c4.28,0.01,6.42,0.01,10.7,0.02c1.09,0.3,2.7,0.46,4.83,0.46c0.69,0,1.28-0.34,1.55-0.45c1.05-0.39,3.97-0.05,6.73-0.18
				c2.76-0.13,4.26-0.19,4.49-0.19c0.75,0,3.02,0.14,6.82,0.42c0.23,0.09,0.46,0.39,0.69,0.88c0,0.63-0.13,1.29-0.39,1.97
				c-0.26,0.68-0.39,1.28-0.39,1.83c0,0.05,0.01,0.16,0.04,0.34c0.03,0.18,0.04,0.32,0.04,0.41c-0.83,0.15-1.24,0.22-2.07,0.37
				c-2.42-0.18-4.86-0.29-7.33-0.33c-6.38-0.11-12.08,0.29-17.08,1.13c-0.46,0.71-0.69,1.53-0.69,2.46c0,0.42,0.12,1.08,0.35,1.97
				c0.23,0.89,0.35,1.57,0.35,2.04c-0.28,1.72-0.48,2.94-0.6,3.65c0.41,0.32,0.62,0.48,1.04,0.81c0.48,0.05,0.72,0.07,1.21,0.12
				c0.8,0.08,1.32,0.12,1.55,0.13c1.44,0.07,2.77,0.04,4.01-0.07C814.26,155.9,815.02,155.85,815.31,155.87z M802.09,141.33
				c-0.48,0.62-0.72,0.93-1.2,1.55c0.24,0,0.36,0,0.6,0.01c0.46,0.01,1.71-0.31,3.75-0.96c2.04-0.65,3.09-1.09,3.15-1.3
				c-0.92-0.3-2.36-0.46-4.32-0.48c-2.76-0.02-4.14-0.01-4.14,0.03c-0.24,0.75-0.36,1.12-0.6,1.87
				C799.9,142.06,800.82,141.82,802.09,141.33z M802.09,143.65c-1.55-0.02-2.33,0.38-2.33,1.22c1.09,0.02,1.98-0.38,2.67-1.21
				C802.3,143.66,802.23,143.66,802.09,143.65z M802.1,146.8c-0.23,0.2-0.66,0.41-1.29,0.63c-0.63,0.21-0.95,0.55-0.95,1.01
				c0,0.04,0,0.15,0,0.31c0.03,0.1,0.05,0.15,0.09,0.25c0.98-0.56,1.65-1.04,2.02-1.45c0.37-0.41,0.56-0.99,0.56-1.75
				c0-0.04-0.01-0.2-0.04-0.47c-0.03-0.27-0.04-0.43-0.04-0.47c-0.17,0.12-0.47,0.3-0.9,0.52c-0.43,0.22-0.81,0.41-1.12,0.57
				c-0.32,0.16-0.47,0.28-0.47,0.37c0,0.33,0.46,0.51,1.38,0.53c0.11,0,0.26,0,0.43-0.02S802.04,146.79,802.1,146.8z M801.5,151.43
				c-1.03-0.03-1.55,0.05-1.55,0.26c0,1,0,1.5,0.01,2.5c0.57,0.02,1.26-0.22,2.07-0.73c0.8-0.51,1.2-1.02,1.2-1.53
				c0-0.08-0.22-0.19-0.65-0.31C802.15,151.5,801.79,151.43,801.5,151.43z M800.31,157.08c0,0.33,0.2,0.91,0.61,1.72
				c1.1-0.75,1.65-1.12,2.75-1.88c0-0.2,0-0.3,0-0.5C801.43,156.31,800.31,156.54,800.31,157.08z M803.31,148.65
				c-0.98-0.03-1.95,0.62-2.93,1.92c1.44,0.04,2.29-0.02,2.54-0.2C803.18,150.19,803.31,149.62,803.31,148.65z M801.89,168.45
				c-0.81-0.06-1.2,0.56-1.2,1.85c0.03,0.3,0.05,0.45,0.09,0.76c0.31,0.02,0.47,0.04,0.78,0.06c0.11,0.01,0.3-0.2,0.56-0.61
				c0.26-0.42,0.39-0.73,0.39-0.94c0-0.75-0.18-1.14-0.52-1.17C801.94,168.42,801.92,168.43,801.89,168.45z M803.67,154.15
				c-0.69-0.03-1.34,0.1-1.94,0.39c-0.6,0.29-0.9,0.66-0.9,1.12C802.72,155.74,803.67,155.24,803.67,154.15z M802.48,161.58
				c-1.09,0.61-1.64,1.1-1.63,1.47c0.69,0.04,1.15,0,1.38-0.14c0.23-0.13,0.34-0.43,0.34-0.89
				C802.53,161.85,802.51,161.76,802.48,161.58z M802.73,159.9c-1.21-0.06-1.81,0.22-1.81,0.84
				C802.13,160.81,802.73,160.53,802.73,159.9z M800.93,164.56c0,0.21,0.2,0.47,0.61,0.79c0.46-0.09,0.69-0.5,0.69-1.21
				C801.36,164.09,800.93,164.23,800.93,164.56z M800.95,173.46c0,0.48,0,0.71,0,1.19c0.86,0.08,1.29-0.28,1.29-1.08
				C801.73,173.53,801.47,173.5,800.95,173.46z M800.96,177.03c0,0.17,0.2,0.42,0.6,0.75c1.55-0.98,2.32-1.58,2.32-1.79
				c-0.55-0.05-0.83-0.08-1.38-0.13c0-0.28,0-0.41,0-0.69c-0.23,0.06-0.75,0.65-1.55,1.74
				C800.96,176.96,800.96,176.98,800.96,177.03z M802.57,166.12c-0.86-0.06-1.29,0.52-1.29,1.73
				C802.14,167.91,802.57,167.33,802.57,166.12z M805.87,176.99c-0.98,0.2-1.89,0.51-2.75,0.94c0.69,0.07,1.19,0.04,1.51-0.07
				C804.93,177.74,805.35,177.45,805.87,176.99z M806.78,159.1c0,0.28,0,0.42,0,0.7c0.69,0.04,1.44-0.06,2.24-0.29
				c0.8-0.23,1.21-0.59,1.2-1.06c-2.41-0.13-3.62-0.19-6.03-0.31c-0.4-0.02-0.6,0.24-0.6,0.79C804.87,159,805.5,159.03,806.78,159.1
				z M808.19,177.98c-0.52-0.05-0.98,0.05-1.38,0.31c0.06,0.01,0.16,0.03,0.3,0.06c0.14,0.04,0.24,0.06,0.3,0.06
				c0.52,0.05,0.86-0.08,1.03-0.41C808.35,178,808.3,177.99,808.19,177.98z M810.54,141.41c-0.23,0.04-0.45,0.15-0.65,0.31
				c-0.2,0.17-0.33,0.34-0.39,0.51c-0.03,0.08-0.05,0.11-0.09,0.19c0,0.09,0.09,0.13,0.26,0.13c0.63,0.01,0.95-0.22,0.95-0.69
				C810.59,141.68,810.58,141.59,810.54,141.41z M814.62,158.17c-1.03-0.1-2,0.08-2.89,0.53c-0.89,0.45-1.33,1.01-1.33,1.69
				c0.92,0.05,1.94-0.14,3.06-0.57c1.12-0.43,1.91-0.94,2.37-1.52c-0.06,0-0.26-0.02-0.6-0.06
				C814.88,158.19,814.68,158.17,814.62,158.17z M814.31,177.76c-1.72-0.17-2.96,0.13-3.7,0.91c0.06,0.01,0.3,0.04,0.73,0.11
				c0.43,0.07,0.7,0.1,0.82,0.12c1.78,0.18,2.84-0.14,3.18-0.97c-0.17-0.04-0.26-0.07-0.43-0.11
				C814.56,177.78,814.36,177.76,814.31,177.76z M813.73,140.28c-0.24,0.15-0.36,0.23-0.6,0.38c0.24,0,0.36,0,0.6,0.01
				C813.73,140.51,813.73,140.44,813.73,140.28z M817.46,158.38c-1.07,0.75-1.6,1.13-2.67,1.87c1.07,0.06,1.6,0.09,2.67,0.15
				c0.4,0.02,0.6-0.64,0.6-1.99C817.83,158.4,817.71,158.39,817.46,158.38z M819.3,178.27c-0.34-0.04-0.95,0.34-1.81,1.12
				c0.63,0.07,1.32-0.27,2.06-1.03C819.44,178.31,819.35,178.27,819.3,178.27z M823.84,158.33c-1.26,0.24-2.15,0.85-2.67,1.83
				c1.72,0.1,2.58,0.15,4.31,0.25C824.85,159.8,824.3,159.1,823.84,158.33z M822.31,177.79c-0.57-0.06-0.95,0.03-1.12,0.28
				c0.92,0.1,1.46,0.02,1.64-0.23C822.62,177.82,822.52,177.81,822.31,177.79z M823.26,178.29c-0.83,0.42-1.24,0.62-2.06,1.04
				c1.43,0.15,2.5,0.01,3.18-0.45c0,0.32,0,0.48,0,0.8c1.69-0.32,2.53-0.48,4.21-0.81C826.46,178.63,825.39,178.51,823.26,178.29z
				 M823.22,139.89c-0.06,0.13-0.09,0.29-0.09,0.46c0,0.57,0.46,0.86,1.38,0.87c1.73,0.02,2.59-0.42,2.59-1.31
				C825.55,139.91,824.78,139.9,823.22,139.89z M828.59,179.73c-0.29-0.03-0.79,0.03-1.51,0.17c-0.72,0.14-1.07,0.28-1.07,0.41
				c0,0.27,0,0.4,0,0.67c1.43,0.16,2.52-0.22,3.27-1.17C829,179.78,828.87,179.76,828.59,179.73z M829.62,178.97
				c0,1.18,0,1.78,0,2.96c1.55,0.18,2.32-0.72,2.32-2.71C831.02,179.12,830.55,179.07,829.62,178.97z"/>
		</g>
	</g>
	<text transform="matrix(1.2217 0 0 1 592.5967 212.6654)" class="st27 st28 st29">CUPPA JOE</text>
	<path class="st30" d="M692.65-266.5"/>
	<g id="steam">
		<path class="st31" d="M915.94,241.64c0,0,1,0.38,2.7,1.06c9.66,3.87,30.83,15.19,30.48,25.66c-0.41,12.31-22.65,26.21-22.21,43.64
			c0.51,20.1,3.29,25.97,3.29,25.97l-0.19-1.48c-0.13-1.02-0.35-2.03-0.6-3.03c-5.87-23.09,10-31.97,21.2-55.4
			c0.21-0.44,1.52-2.86,1.94-4.01c2.36-6.48,3.19-7.16,1.23-11.74c-0.97-2.28-1.89-3.28-4.13-5.51c-5.68-5.68-7.25-6.86-10.49-8.39
			c-3.59-1.69-7.35-2.97-11.21-3.89L915.94,241.64z"/>
		<path class="st31" d="M1070.55,242.07c0,0-0.97,0.44-2.62,1.24c-9.37,4.53-29.7,17.3-28.62,27.72
			c1.27,12.25,24.42,24.57,25.19,41.99c0.89,20.09-1.48,26.14-1.48,26.14l0.08-1.49c0.06-1.03,0.2-2.05,0.39-3.06
			c4.25-23.44-12.2-31.2-25-53.79c-0.24-0.42-1.71-2.75-2.21-3.87c-2.8-6.3-3.68-6.92-2.05-11.63c0.81-2.34,1.66-3.4,3.73-5.79
			c5.27-6.06,6.75-7.35,9.88-9.1c3.46-1.94,7.13-3.47,10.91-4.66L1070.55,242.07z"/>
		<path class="st31" d="M1031.63,339.51c0,0-1.43-0.67-3.87-1.89c-13.87-6.93-44.27-27.19-43.77-45.92
			c0.59-22.02,32.52-46.89,31.88-78.09c-0.74-35.97-4.73-46.48-4.73-46.48l0.27,2.64c0.19,1.83,0.5,3.63,0.86,5.42
			c8.44,41.32-14.36,57.21-30.44,99.14c-0.3,0.79-2.18,5.12-2.78,7.18c-3.38,11.6-4.58,12.81-1.77,21.01
			c1.4,4.08,2.72,5.86,5.93,9.86c8.15,10.16,10.41,12.27,15.06,15.01c5.15,3.02,10.55,5.31,16.09,6.96L1031.63,339.51z"/>
	</g>
	<path class="st14" d="M850.19,340.48c139.11,14.53,262.34,0,262.34,0"/>
	<path class="st32" d="M860.29,341.93c0,0,113.44,9.63,240.98,0C1101.27,341.93,926.96,340.92,860.29,341.93z"/>
</g>
</svg>
